<svg xmlns="http://www.w3.org/2000/svg" width="26.555" height="32.6" viewBox="0 0 26.555 32.6">
  <path id="Path_647" data-name="Path 647" d="M15.985,10.217c-1.288,0-3.281-1.464-5.38-1.411A7.944,7.944,0,0,0,3.866,12.9C.991,17.89,3.125,25.263,5.93,29.32c1.376,1.976,3,4.2,5.151,4.128,2.064-.088,2.84-1.341,5.345-1.341,2.487,0,3.193,1.341,5.38,1.288,2.223-.035,3.634-2.011,4.992-4a17.728,17.728,0,0,0,2.258-4.639,7.2,7.2,0,0,1-4.375-6.6,7.318,7.318,0,0,1,3.528-6.192,7.636,7.636,0,0,0-5.962-3.228C19.53,8.523,17.255,10.217,15.985,10.217Zm4.586-4.163A7.131,7.131,0,0,0,22.264.85a7.335,7.335,0,0,0-4.8,2.47,6.821,6.821,0,0,0-1.729,5.045A6.081,6.081,0,0,0,20.571,6.054Z" transform="translate(-2.5 -0.85)"/>
</svg>
