<svg xmlns="http://www.w3.org/2000/svg" width="29.399" height="29.999" viewBox="0 0 29.399 29.999">
  <g id="Group_352" data-name="Group 352" transform="translate(-213.214 -758)">
    <path id="Path_648" data-name="Path 648" d="M144.95,109.828a12.853,12.853,0,0,0-.317-3.067H130.55v5.566h8.266a7.33,7.33,0,0,1-3.067,4.866l-.028.186,4.453,3.449.309.031a14.666,14.666,0,0,0,4.467-11.033" transform="translate(97.664 663.505)" fill="#4285f4"/>
    <path id="Path_649" data-name="Path 649" d="M27.325,168.4a14.3,14.3,0,0,0,9.933-3.633L32.524,161.1a8.878,8.878,0,0,1-5.2,1.5,9.03,9.03,0,0,1-8.533-6.233l-.176.015-4.63,3.583-.061.168a14.989,14.989,0,0,0,13.4,8.266" transform="translate(200.889 619.596)" fill="#34a853"/>
    <path id="Path_650" data-name="Path 650" d="M6.466,81.085a9.234,9.234,0,0,1-.5-2.967,9.7,9.7,0,0,1,.483-2.967l-.008-.2L1.753,71.312l-.153.073a14.968,14.968,0,0,0,0,13.466l4.866-3.766" transform="translate(213.214 694.881)" fill="#fbbc05"/>
    <path id="Path_651" data-name="Path 651" d="M27.325,5.8a8.313,8.313,0,0,1,5.8,2.233L37.358,3.9A14.411,14.411,0,0,0,27.325,0a14.989,14.989,0,0,0-13.4,8.266l4.85,3.767A9.067,9.067,0,0,1,27.325,5.8" transform="translate(200.889 758)" fill="#eb4335"/>
  </g>
</svg>
