<svg xmlns="http://www.w3.org/2000/svg" width="19.729" height="22.075" viewBox="0 0 19.729 22.075">
  <path id="Path_818" data-name="Path 818" d="M36.91,18.559v1.1a2.355,2.355,0,0,1-1.2,2.085,2.355,2.355,0,0,1-2.407,0L28.408,18.92a2.355,2.355,0,0,1-1.2-2.085V2.407A2.41,2.41,0,0,1,29.611,0H40.384a2.41,2.41,0,0,1,2.408,2.407V5.449a.79.79,0,1,1-1.581,0V2.407a.828.828,0,0,0-.827-.827h-9.44l4.762,2.75a2.355,2.355,0,0,1,1.2,2.084V16.978h3.474a.828.828,0,0,0,.827-.827V13.485a.79.79,0,1,1,1.581,0v2.666a2.41,2.41,0,0,1-2.408,2.407Zm7.324-8.489-.871.871a.79.79,0,0,0,1.118,1.118L46.7,9.838a.79.79,0,0,0,0-1.117L44.482,6.5a.79.79,0,1,0-1.118,1.117l.87.87H38.4a.79.79,0,0,0,0,1.581h5.832Z" transform="translate(-27.204 0)" fill-rule="evenodd"/>
</svg>
