<svg xmlns="http://www.w3.org/2000/svg" width="22.004" height="22.009" viewBox="0 0 22.004 22.009">
  <g id="Group_490" data-name="Group 490" transform="translate(0 0.003)">
    <path id="Path_803" data-name="Path 803" d="M17.751,3V6.751H14" transform="translate(3.253 0.5)" fill="none" stroke="#000" stroke-linecap="round" stroke-linejoin="round" stroke-width="2"/>
    <path id="Path_804" data-name="Path 804" d="M1,15.751V12H4.751" transform="translate(0 2.752)" fill="none" stroke="#000" stroke-linecap="round" stroke-linejoin="round" stroke-width="2"/>
    <path id="Path_805" data-name="Path 805" d="M19.317,5.66A10,10,0,0,0,1.562,7.32" transform="translate(0.141 0)" fill="none" stroke="#000" stroke-linecap="round" stroke-linejoin="round" stroke-width="2"/>
    <path id="Path_806" data-name="Path 806" d="M2.237,13.605a10,10,0,0,0,17.755-1.66" transform="translate(0.309 2.739)" fill="none" stroke="#000" stroke-linecap="round" stroke-linejoin="round" stroke-width="2"/>
    <path id="Path_807" data-name="Path 807" d="M12.251,6H9.126C6.625,6,6,6.625,6,7.875s.625,1.875,3.751,1.875,3.751.625,3.751,1.875S12.876,13.5,9.751,13.5H7.25" transform="translate(1.251 1.251)" fill="none" stroke="#000" stroke-linecap="round" stroke-linejoin="round" stroke-width="2"/>
    <path id="Path_808" data-name="Path 808" d="M9,5V15" transform="translate(2.002 1.001)" fill="none" stroke="#000" stroke-linecap="round" stroke-linejoin="round" stroke-width="2"/>
  </g>
</svg>
