<svg xmlns="http://www.w3.org/2000/svg" width="20.811" height="21.175" viewBox="0 0 20.811 21.175">
  <g id="_icons" transform="translate(-3 -2.685)">
    <g id="Group_495" data-name="Group 495" transform="translate(3 2.685)">
      <path id="Path_816" data-name="Path 816" d="M14.446,22.241a1.171,1.171,0,0,0-1.041-.694,8.093,8.093,0,1,1,0-16.186,8.307,8.307,0,0,1,6.012,2.659l-2.081.347a1.2,1.2,0,0,0-.925,1.387,1.126,1.126,0,0,0,1.156.925H17.8l4.856-.925a1.2,1.2,0,0,0,.925-1.387l-.925-4.74a1.179,1.179,0,1,0-2.312.462l.347,1.965a10.631,10.631,0,0,0-7.284-3.006,10.492,10.492,0,0,0-9.018,5.2,10.449,10.449,0,0,0,0,10.405A10.076,10.076,0,0,0,8.2,22.472a10.317,10.317,0,0,0,5.2,1.387,1.171,1.171,0,0,0,1.041-.694.983.983,0,0,0,0-.925Z" transform="translate(-3 -2.685)"/>
      <path id="Path_817" data-name="Path 817" d="M15.278,14.128l-1.965-1.965V9.156A1.092,1.092,0,0,0,12.156,8,1.092,1.092,0,0,0,11,9.156v3.468a1.05,1.05,0,0,0,.347.809l2.312,2.312a1.118,1.118,0,0,0,1.619,0A1.118,1.118,0,0,0,15.278,14.128Z" transform="translate(-1.751 -1.855)"/>
      <circle id="Ellipse_12" data-name="Ellipse 12" cx="1.156" cy="1.156" r="1.156" transform="translate(18.498 9.614)"/>
      <circle id="Ellipse_13" data-name="Ellipse 13" cx="1.156" cy="1.156" r="1.156" transform="translate(17.342 14.238)"/>
      <circle id="Ellipse_14" data-name="Ellipse 14" cx="1.156" cy="1.156" r="1.156" transform="translate(13.874 17.707)"/>
    </g>
  </g>
</svg>
