<svg xmlns="http://www.w3.org/2000/svg" width="22" height="16" viewBox="0 0 22 16">
  <path id="Path_1352" data-name="Path 1352" d="M1,4H23V6H1ZM1,18H23v2H1Zm18.622-3.086-.174-.87H17.5l-.309.863-1.562,0q1.506-3.61,2.235-5.349a.682.682,0,0,1,.685-.455q.381,0,1.244,0L21,14.911Zm-1.684-2.062h1.256l-.469-2.18ZM7.872,9.106l1.57,0L7.015,14.914H5.425q-.806-3.106-1.184-4.605a.8.8,0,0,0-.526-.622Q3.32,9.55,2.4,9.267V9.108H4.909a.7.7,0,0,1,.769.639q.123.647.62,3.289Zm3.727,0-1.241,5.805-1.494,0Q8.909,14.7,10.1,9.106ZM14.631,9a4.132,4.132,0,0,1,1.335.267l-.262,1.2a3.374,3.374,0,0,0-1.18-.27c-.59.009-.954.256-.954.493,0,.385.632.578,1.284,1a1.435,1.435,0,0,1,.832,1.378C15.674,14.042,14.853,15,13.12,15a4.3,4.3,0,0,1-1.72-.306l.272-1.256a3.258,3.258,0,0,0,1.5.361c.514,0,.955-.207.959-.568,0-.257-.155-.384-.732-.7s-1.386-.757-1.375-1.64C12.033,9.758,13.107,9,14.631,9Z" transform="translate(-1 -4)" fill="#fff"/>
</svg>
