<svg id="Layer_2" data-name="Layer 2" xmlns="http://www.w3.org/2000/svg" width="26.781" height="26.757" viewBox="0 0 26.781 26.757">
  <path id="Path_1413" data-name="Path 1413" d="M9.915,1A8.919,8.919,0,0,0,1,9.919a8.807,8.807,0,0,0,.8,3.716L1,17.961a.743.743,0,0,0,.743.877h.134l4.326-.8a8.807,8.807,0,0,0,3.716.8A8.919,8.919,0,1,0,9.915,1Zm0,4.459a.907.907,0,1,1-.907.907.907.907,0,0,1,.907-.907Zm.907,8.919H9.008a.743.743,0,1,1,0-1.486h.164V9.837H9.008a.743.743,0,1,1,0-1.486h.907a.743.743,0,0,1,.743.743v3.8h.164a.743.743,0,1,1,0,1.486Z" transform="translate(-0.984 -1)" fill="#0252c9"/>
  <path id="Path_1414" data-name="Path 1414" d="M30.081,25.681a8.807,8.807,0,0,0,.8-3.716,8.919,8.919,0,0,0-7.432-8.785A10.405,10.405,0,0,1,13.18,23.452a8.919,8.919,0,0,0,8.785,7.432,8.808,8.808,0,0,0,3.716-.8l4.326.8h.134a.743.743,0,0,0,.743-.877Zm-5.143,0H18.992a.743.743,0,1,1,0-1.486h5.946a.743.743,0,1,1,0,1.486Zm0-2.973h-2.23a.743.743,0,1,1,0-1.486h2.23a.743.743,0,1,1,0,1.486Z" transform="translate(-4.115 -4.127)" fill="#0252c9"/>
</svg>
