<svg width="26" height="26" viewBox="0 0 26 26" fill="none" xmlns="http://www.w3.org/2000/svg">
<path fill-rule="evenodd" clip-rule="evenodd" d="M23.3455 16.9797C24.514 16.9797 25.4689 17.9298 25.4689 19.102C25.4689 20.272 24.5166 21.2246 23.3414 21.2246H2.12746C0.951972 21.2246 0 20.2741 0 19.102C0 17.9324 0.950456 16.9797 2.12339 16.9797C2.7067 16.9797 3.18347 16.5041 3.18347 15.9175V9.55099C3.18347 4.27378 7.45953 0 12.7345 0C18.0106 0 22.2854 4.27606 22.2854 9.55099V15.9175C22.2854 16.5078 22.7599 16.9797 23.3455 16.9797ZM9.01999 22.2858H16.4483C16.4483 24.337 14.7854 26 12.7342 26C10.683 26 9.01999 24.337 9.01999 22.2858Z" fill="white"/>
</svg>
