<svg id="Group_388" data-name="Group 388" xmlns="http://www.w3.org/2000/svg" xmlns:xlink="http://www.w3.org/1999/xlink" width="37.87" height="37.468" viewBox="0 0 37.87 37.468">
  <defs>
    <clipPath id="clip-path">
      <rect id="Rectangle_1595" data-name="Rectangle 1595" width="37.87" height="37.468" fill="#fff"/>
    </clipPath>
  </defs>
  <g id="Group_387" data-name="Group 387" clip-path="url(#clip-path)">
    <path id="Path_670" data-name="Path 670" d="M49.233,165.329l-.3.332-36.024,0a.621.621,0,0,1,.263-1.149H14.4v-7.936l6.619-4.758,6.62,4.722v7.973h1.183V157.5c.607.181,1.192,1.238,1.849.627.127-.118,1.337-1.767,1.373-1.878a.632.632,0,0,0-.187-.708l-3.108-2.286,1.963-1.444,6.616,4.766v7.936h1.183V157.5c.644.149,1.128,1.208,1.848.664,0,.417-.084.861.349,1.092H45.26a.652.652,0,0,0,.35-.537,28.333,28.333,0,0,0,0-4.066c-.045-.453-.35-.586-.778-.626a25.8,25.8,0,0,0-3.842.01.76.76,0,0,0-.672.583l-1.813-1.365V142.223l8.95,4.54v17.754H48.6a.949.949,0,0,1,.629.443Zm-8.528-17.7a.652.652,0,0,0-.35.537c-.151,1.276.119,2.832,0,4.14.052.391.427.523.778.553a26.7,26.7,0,0,0,3.775,0c.4-.045.667-.216.707-.623a28.3,28.3,0,0,0,0-4.066.569.569,0,0,0-.479-.556Zm-20.042,5.539a1.839,1.839,0,0,0-.011,3.593c2.981.412,2.762-4.064.011-3.593m3.422,11.351v-5.2c0-.14-.372-.451-.553-.408-1.6.113-3.386-.144-4.961,0-.212.019-.625.166-.625.41v5.2h1.183v-4.429H22.9v4.429Z" transform="translate(-11.363 -128.197)" fill="#fff"/>
    <path id="Path_671" data-name="Path 671" d="M0,219.051l9.652-6.991,9.651,7.028-.553.775-9.1-6.463L.625,219.86l-.106,0L0,219.125Z" transform="translate(0 -191.147)" fill="#fff"/>
    <path id="Path_672" data-name="Path 672" d="M119.254,38.923V59.3l-6.505-4.62-.473.129-4.461,3.224L103.5,54.905V39.034l.111-.111Zm-13.587,2.753a1.324,1.324,0,0,0-.171.532,26.724,26.724,0,0,0,0,3.768c.039.415.167.72.63.774a28.1,28.1,0,0,0,4,0,.677.677,0,0,0,.7-.7,26.552,26.552,0,0,0,0-3.768c-.03-.346-.16-.724-.554-.776-1.334.1-2.838-.124-4.151,0a.7.7,0,0,0-.454.174m6.51,0a.958.958,0,0,0-.173.455,26.917,26.917,0,0,0,0,3.843c.039.415.167.72.63.774a28.088,28.088,0,0,0,4,0c.554-.051.658-.332.7-.85a26.793,26.793,0,0,0,0-3.549c-.031-.365-.122-.793-.553-.85-1.334.1-2.839-.125-4.151,0a.68.68,0,0,0-.452.176m-6.258,6.341c-.3.064-.393.417-.423.685a26.06,26.06,0,0,0,0,3.839.677.677,0,0,0,.7.7,28.089,28.089,0,0,0,4,0c.546-.064.6-.462.63-.921a26.352,26.352,0,0,0,0-3.621c-.051-.456-.162-.662-.626-.7-1.351-.123-2.905.086-4.277.019m6.509,0a.665.665,0,0,0-.424.61,26.608,26.608,0,0,0,0,3.914.677.677,0,0,0,.7.7,27.519,27.519,0,0,0,3.924,0c.614-.069.667-.375.706-.919a27.4,27.4,0,0,0,0-3.475c-.031-.37-.094-.844-.556-.848Z" transform="translate(-93.293 -35.084)" fill="#fff"/>
    <path id="Path_673" data-name="Path 673" d="M36.741,117.52v1.329H32.71c-.03,0-.4.357-.337.476.121,1.334-.148,2.91,0,4.213.028.245.226.552.482.552h3.883v1.735l-5.991,4.318V117.52Z" transform="translate(-27.717 -105.93)" fill="#fff"/>
    <rect id="Rectangle_1591" data-name="Rectangle 1591" width="12.13" height="2.658" transform="translate(12.056)" fill="#fff"/>
    <path id="Path_674" data-name="Path 674" d="M161.575,212.7l9.64,6.888.064.14-.511.679-8.967-6.416a.342.342,0,0,0-.209-.017c-.607.1-2.207,1.689-2.878,2.007-.235.067-.616-.394-.855-.487Z" transform="translate(-142.291 -191.719)" fill="#fff"/>
    <rect id="Rectangle_1592" data-name="Rectangle 1592" width="3.18" height="2.879" transform="translate(5.843 14.1)" fill="#fff"/>
    <path id="Path_675" data-name="Path 675" d="M308.649,273.965v2.879h-2.885c.06-.45-.082-1.091,0-1.512.038-.195.213-.193.228-.516.019-.4-.245-.494-.229-.851Z" transform="translate(-275.587 -246.947)" fill="#fff"/>
    <rect id="Rectangle_1593" data-name="Rectangle 1593" width="2.885" height="2.879" transform="translate(30.178 20.596)" fill="#fff"/>
    <path id="Path_676" data-name="Path 676" d="M92.323,264.944a.649.649,0,0,1-.9.935c-.626-.555.275-1.558.9-.935" transform="translate(-82.216 -238.638)" fill="#fff"/>
    <path id="Path_677" data-name="Path 677" d="M138.709,142.971v2.768l-.111.111h-2.737l-.111-.111v-2.768Z" transform="translate(-122.362 -128.871)" fill="#fff"/>
    <path id="Path_678" data-name="Path 678" d="M204.709,142.971v2.768l-.111.111H201.75v-2.879Z" transform="translate(-181.853 -128.871)" fill="#fff"/>
    <rect id="Rectangle_1594" data-name="Rectangle 1594" width="2.959" height="2.879" transform="translate(13.388 7.603)" fill="#fff"/>
    <path id="Path_679" data-name="Path 679" d="M204.709,77.1v2.768l-.111.111H201.75V77.1Z" transform="translate(-181.853 -69.496)" fill="#fff"/>
  </g>
</svg>
