<svg id="Group_400" data-name="Group 400" xmlns="http://www.w3.org/2000/svg" xmlns:xlink="http://www.w3.org/1999/xlink" width="33.913" height="33.871" viewBox="0 0 33.913 33.871">
  <defs>
    <clipPath id="clip-path">
      <rect id="Rectangle_1604" data-name="Rectangle 1604" width="33.913" height="33.871" fill="#fff"/>
    </clipPath>
  </defs>
  <g id="Group_399" data-name="Group 399" clip-path="url(#clip-path)">
    <path id="Path_716" data-name="Path 716" d="M.009,2.5A2.988,2.988,0,0,1,2.431.062,2.854,2.854,0,0,1,4.4,5.283L5.9,8.431a7.279,7.279,0,0,1,4.913.044A7.314,7.314,0,0,1,14.4,11.7l6.237-2.748a6.823,6.823,0,0,1-.126-4.059l-1.849-.732a2.8,2.8,0,0,1-4.95.086A2.833,2.833,0,0,1,17.1.2,2.94,2.94,0,0,1,19,3.422c.316.014,1.663.769,1.836.661a6.735,6.735,0,1,1,4.376,9.14L22.5,20.995a6.489,6.489,0,0,1,2.648,2.192l.09.023L28.4,21.068l.05-.122a2.835,2.835,0,0,1,4.869-2.821c2.148,2.872-2,6.24-4.428,3.571l-3.178,2.182c-.08.127.237.7.3.892a6.8,6.8,0,0,1-5.691,9.1H19.062c-.348-.111-.716-.127-1.073-.218A6.914,6.914,0,0,1,13.735,30.3a8.517,8.517,0,0,0-.525-1.107l-2.487.541a5.148,5.148,0,0,1-.336,1.45,2.841,2.841,0,1,1,.118-2.27l2.529-.541a7.049,7.049,0,0,1,1.237-5.281c.107-.153.523-.536.483-.687l-2.077-2.494a6.684,6.684,0,0,1-8.6.063,6.756,6.756,0,0,1-.168-10.29c.275-.24.964-.611,1.125-.794.053-.06.088-.093.057-.181L3.638,5.691a3.234,3.234,0,0,1-2.526-.552,3.143,3.143,0,0,1-1.1-1.908c.021-.232-.03-.5,0-.728m31.16,8.4A5.9,5.9,0,1,0,21.9,3.783a5.81,5.81,0,0,0,1,7.125A3.11,3.11,0,0,1,24.36,8.63a8.741,8.741,0,0,0,.787-.4,2.7,2.7,0,1,1,4.358-.87l-.586.969a3.116,3.116,0,0,1,2.25,2.581M12.513,18.915a5.909,5.909,0,1,0-9.052-.84,7.313,7.313,0,0,0,.647.809c.047.033.119.072.134,0a3.094,3.094,0,0,1,2.25-2.546,2.772,2.772,0,0,1,.132-4.07A2.712,2.712,0,0,1,10.8,15.519l-.541.815a3.139,3.139,0,0,1,2.25,2.581m8.528-9.128-6.274,2.649c.068.589.287,1.149.328,1.745a6.778,6.778,0,0,1-1.788,5.164l2.085,2.548a6.773,6.773,0,0,1,6.284-1.2l2.744-7.637-.064-.131a6.492,6.492,0,0,1-3.315-3.138m2.784,21.5a5.309,5.309,0,0,0,1.62-2.779,5.906,5.906,0,1,0-9.891,2.779,3.273,3.273,0,0,1,1.262-2.146c.307-.219.673-.328.987-.534a2.7,2.7,0,1,1,3.773,0,3.334,3.334,0,0,1,2.249,2.68" transform="translate(0 0.001)" fill="#fff"/>
  </g>
</svg>
