<svg xmlns="http://www.w3.org/2000/svg" width="29.76" height="29.749" viewBox="0 0 29.76 29.749">
  <g id="Group_419" data-name="Group 419" transform="translate(-41.028 -605.029)">
    <g id="Group_416" data-name="Group 416" transform="translate(35.031 599.003)">
      <path id="Path_726" data-name="Path 726" d="M44.908,12.936A8.645,8.645,0,0,0,27.79,14.659V23.3h8.642a8.727,8.727,0,0,0,8.476-10.365Zm-2.4,1.74a1.432,1.432,0,0,1-2.862,0A1.432,1.432,0,0,1,42.5,14.676Zm-12.139,0a1.432,1.432,0,0,1,2.862,0A1.432,1.432,0,0,1,30.366,14.676ZM35,14.659a1.432,1.432,0,0,1,2.862,0A1.432,1.432,0,0,1,35,14.659Z" transform="translate(-9.32)" fill="#262626"/>
      <path id="Path_727" data-name="Path 727" d="M23.455,40.878a3.429,3.429,0,0,0,3.176-.9,17.248,17.248,0,0,0,1.843-2.135,1.735,1.735,0,0,0-.584-2.53l-3.331-1.757a3.441,3.441,0,0,0-3.463.149L18.63,35.292a19.679,19.679,0,0,1-6.96-6.96l1.585-2.467A3.441,3.441,0,0,0,13.4,22.4l-1.757-3.331a1.73,1.73,0,0,0-2.53-.584,17.249,17.249,0,0,0-2.135,1.843,3.429,3.429,0,0,0-.9,3.176,23.168,23.168,0,0,0,17.37,17.37Z" transform="translate(0 -5.191)" fill="#262626"/>
    </g>
  </g>
</svg>
