<svg xmlns="http://www.w3.org/2000/svg" width="40" height="40" viewBox="0 0 40 40">
  <g id="Group_756" data-name="Group 756" transform="translate(-61 -381)">
    <rect id="Rectangle_1781" data-name="Rectangle 1781" width="40" height="40" rx="8" transform="translate(61 381)" fill="#0252c9"/>
    <g id="Group_419" data-name="Group 419" transform="translate(27.171 -216.831)">
      <g id="Group_416" data-name="Group 416" transform="translate(41.028 605.029)">
        <path id="Path_726" data-name="Path 726" d="M42.379,11.915A7.368,7.368,0,0,0,27.79,13.383v7.365h7.365a7.438,7.438,0,0,0,7.224-8.833ZM40.33,13.4a1.22,1.22,0,0,1-2.439,0A1.22,1.22,0,0,1,40.33,13.4Zm-10.345,0a1.22,1.22,0,0,1,2.439,0A1.22,1.22,0,0,1,29.985,13.4Zm3.951-.015a1.22,1.22,0,0,1,2.439,0A1.22,1.22,0,0,1,33.936,13.383Z" transform="translate(-17.16 -6.025)" fill="#fff"/>
        <path id="Path_727" data-name="Path 727" d="M20.875,37.521a2.922,2.922,0,0,0,2.707-.766,14.7,14.7,0,0,0,1.571-1.819,1.479,1.479,0,0,0-.5-2.156l-2.839-1.5a2.933,2.933,0,0,0-2.951.127l-2.1,1.351a16.771,16.771,0,0,1-5.931-5.931l1.351-2.1a2.933,2.933,0,0,0,.127-2.951l-1.5-2.839a1.475,1.475,0,0,0-2.156-.5,14.7,14.7,0,0,0-1.819,1.571,2.922,2.922,0,0,0-.766,2.707,19.744,19.744,0,0,0,14.8,14.8Z" transform="translate(-5.997 -12.244)" fill="#fff"/>
      </g>
    </g>
  </g>
</svg>
