<svg xmlns="http://www.w3.org/2000/svg" width="40" height="40" viewBox="0 0 40 40">
  <g id="Group_760" data-name="Group 760" transform="translate(-61 -381.97)">
    <rect id="Rectangle_1779" data-name="Rectangle 1779" width="40" height="40" rx="8" transform="translate(61 381.97)" fill="#0252c9"/>
    <g id="Group_457" data-name="Group 457" transform="translate(40.494 388.023)">
      <path id="Path_777" data-name="Path 777" d="M64.153,0a3.186,3.186,0,0,0-3.182,3.182,3.183,3.183,0,1,0,6.365,0A3.186,3.186,0,0,0,64.153,0Z" transform="translate(-30.808 0)" fill="#fff"/>
      <path id="Path_778" data-name="Path 778" d="M337.336,3.182a3.182,3.182,0,0,0-6.365,0,3.183,3.183,0,1,0,6.365,0Z" transform="translate(-286.487 0)" fill="#fff"/>
      <path id="Path_779" data-name="Path 779" d="M175.166,366.523c1.852,1.554,2.308,1.992,2.8,2.413a2.562,2.562,0,0,0,3.315-.011c.863-.747,1.8-1.609,2.639-2.347a3.137,3.137,0,0,1-1.842-4.373,5.683,5.683,0,0,0-5.258,0,3.166,3.166,0,0,1-1.658,4.314Z" transform="translate(-138.946 -342.385)" fill="#fff"/>
      <circle id="Ellipse_7" data-name="Ellipse 7" cx="1.591" cy="1.591" r="1.591" transform="translate(38.914 12.783)" fill="#fff"/>
      <path id="Path_780" data-name="Path 780" d="M40.506,126.873a6.477,6.477,0,0,0-5.636-3.662c-3.667,0-6.433,2.973-6.433,6.914,0,3.482,2.368,6.035,6.11,9.264a1.591,1.591,0,0,0,1.529-2.707c-3.416-3.1-4.457-4.547-4.457-6.165h1.591c0,1,.978,2.27,3.66,4.732a7.276,7.276,0,0,1,7.269,0c2.683-2.462,3.66-3.729,3.66-4.732h1.591c0,1.618-1.041,3.062-4.457,6.165a1.583,1.583,0,0,0,1.935,2.5c3.979-3.626,5.7-5.875,5.7-9.056,0-3.942-2.765-6.914-6.433-6.914a6.476,6.476,0,0,0-5.636,3.662Zm3.182,4.177a3.182,3.182,0,1,1-3.182-3.182A3.186,3.186,0,0,1,43.688,131.05Z" transform="translate(0 -116.676)" fill="#fff"/>
    </g>
  </g>
</svg>
