<svg xmlns="http://www.w3.org/2000/svg" width="40" height="40" viewBox="0 0 40 40">
  <g id="Group_759" data-name="Group 759" transform="translate(-61 -381.97)">
    <rect id="Rectangle_1778" data-name="Rectangle 1778" width="40" height="40" rx="8" transform="translate(61 381.97)" fill="#0252c9"/>
    <g id="Group_468" data-name="Group 468" transform="translate(69.24 389.688)">
      <path id="Path_789" data-name="Path 789" d="M4.436,99.209V96H1.749A1.74,1.74,0,0,0,0,97.75v16.055a1.75,1.75,0,0,0,1.75,1.761h.388V101.717a2.5,2.5,0,0,1,2.3-2.508Zm0,0" transform="translate(0 -90.868)" fill="#fff"/>
      <path id="Path_790" data-name="Path 790" d="M113.037,0H97V8.339h16.037ZM98.786,1.39h5.024a.374.374,0,0,1,0,.748H98.786a.374.374,0,0,1,0-.748Zm12.508,5.56H98.786a.374.374,0,0,1,0-.748h12.508a.374.374,0,1,1,0,.748Zm0-1.6H98.786a.374.374,0,0,1,0-.748h12.508a.374.374,0,1,1,0,.748Zm0-1.6H98.786a.374.374,0,0,1,0-.748h12.508a.374.374,0,1,1,0,.748Zm0,0" transform="translate(-91.815)" fill="#fff"/>
      <path id="Path_791" data-name="Path 791" d="M217.559,297.569l-.4-.819-.4.819a.374.374,0,0,1-.282.2l-.9.131.654.637a.374.374,0,0,1,.108.331l-.154.9.808-.425a.374.374,0,0,1,.348,0l.808.425-.154-.9a.375.375,0,0,1,.108-.331l.654-.637-.9-.131A.374.374,0,0,1,217.559,297.569Zm0,0" transform="translate(-204.044 -280.887)" fill="#fff"/>
      <path id="Path_792" data-name="Path 792" d="M161.8,222.405a3.112,3.112,0,0,1-3.258-.214l-1.419,1.61.112.089c1.319,1.046.858,2.228.412,3.371l-.029.075c-.52,1.327-1.057,2.7.473,4.329a2.116,2.116,0,0,0,1.809.654,2.978,2.978,0,0,1,1.842.682,3.191,3.191,0,0,1,1.885-.682h.2l.128,0,.063,0a1.98,1.98,0,0,0,1.488-.65c1.543-1.643.945-3.173.464-4.4-.1-.245-.164-.429-.222-.6a3.593,3.593,0,0,1-.245-1.2,1.957,1.957,0,0,1,.859-1.575l.112-.089-1.418-1.607a3.113,3.113,0,0,1-3.259.214Zm2.654,4.933-1.056,1.029.249,1.453a.374.374,0,0,1-.543.394l-1.3-.686-1.3.686a.374.374,0,0,1-.543-.394l.249-1.453-1.056-1.029a.374.374,0,0,1,.207-.638l1.459-.212.652-1.322a.374.374,0,0,1,.671,0l.652,1.322,1.459.212a.374.374,0,0,1,.207.638Zm0,0" transform="translate(-148.689 -210.313)" fill="#fff"/>
      <path id="Path_793" data-name="Path 793" d="M72.884,170H55.745A1.746,1.746,0,0,0,54,171.76v13.849H72.884a1.749,1.749,0,0,0,1.75-1.761V171.76A1.749,1.749,0,0,0,72.884,170Zm-3.069,4.477a.374.374,0,0,1-.139.26l-.42.336a1.208,1.208,0,0,0-.577,1,2.918,2.918,0,0,0,.2.951c.054.157.119.332.211.568.5,1.274,1.251,3.2-.617,5.189a2.729,2.729,0,0,1-2,.884l-.073,0-.141,0h-.207a2.415,2.415,0,0,0-1.63.707.374.374,0,0,1-.27.115h-.01a.365.365,0,0,1-.273-.12,2.137,2.137,0,0,0-1.552-.684h-.01a2.832,2.832,0,0,1-2.339-.9c-1.855-1.975-1.174-3.721-.626-5.12l.029-.077c.512-1.314.63-1.872-.18-2.514l-.42-.335a.375.375,0,0,1-.047-.541l1.895-2.15a.374.374,0,0,1,.5-.056,2.362,2.362,0,0,0,2.889.261.374.374,0,0,1,.43,0,2.362,2.362,0,0,0,2.889-.261.374.374,0,0,1,.5.056l1.895,2.147A.374.374,0,0,1,69.815,174.476Zm0,0" transform="translate(-51.113 -160.912)" fill="#fff"/>
    </g>
  </g>
</svg>
