<svg xmlns="http://www.w3.org/2000/svg" width="40" height="40" viewBox="0 0 40 40">
  <g id="Group_757" data-name="Group 757" transform="translate(-62 -381)">
    <rect id="Rectangle_1777" data-name="Rectangle 1777" width="40" height="40" rx="8" transform="translate(62 381)" fill="#0252c9"/>
    <g id="Group_467" data-name="Group 467" transform="translate(24.572 348.1)">
      <path id="Path_781" data-name="Path 781" d="M353.747,86.469a.665.665,0,0,0,.674,0l1.128-.651.683-.394.815-.47a.674.674,0,0,0,0-1.167l-2.625-1.516a.674.674,0,0,0-1.011.584v3.031A.667.667,0,0,0,353.747,86.469Zm.433-3.449,2.338,1.35-2.338,1.35Z" transform="translate(-289.818 -40.194)" fill="#fff"/>
      <path id="Path_782" data-name="Path 782" d="M57.851,61.064a8.081,8.081,0,0,0,7.1-11.953c.052,0,.1,0,.156,0a4.952,4.952,0,0,0,2.519-.69h0a10.836,10.836,0,0,1,.815,6.6c-.015.078-.031.157-.048.234a.385.385,0,0,0,.294.458.4.4,0,0,0,.082.009.385.385,0,0,0,.376-.3c.018-.084.035-.167.051-.251a11.6,11.6,0,0,0-.933-7.192,4.887,4.887,0,0,0,.592-.582,12.37,12.37,0,0,1,.526,9.995c-.033.085-.066.171-.1.255a.386.386,0,0,0,.21.5.393.393,0,0,0,.146.029.385.385,0,0,0,.357-.239c.037-.09.072-.181.107-.271a13.139,13.139,0,0,0-.743-10.967,4.941,4.941,0,1,0-9.071-1.423,8.08,8.08,0,0,0-7.745,1.62,4.4,4.4,0,0,0-1.128-2.539,10.788,10.788,0,0,1,4.576-1.982.385.385,0,1,0-.134-.757,11.559,11.559,0,0,0-5.017,2.21,4.374,4.374,0,0,0-.724-.454,12.3,12.3,0,0,1,7.738-2.726.385.385,0,0,0,0-.77,13.07,13.07,0,0,0-8.564,3.182,4.376,4.376,0,0,0-1.141-.15,4.415,4.415,0,1,0,1.786,8.453,8.091,8.091,0,0,0,1.655,6.734,3.792,3.792,0,0,0-.831.308,3.841,3.841,0,0,0-1.293,1.071c-.034.044-.067.088-.1.133a10.739,10.739,0,0,1-1.83-3.542.385.385,0,0,0-.738.219,11.512,11.512,0,0,0,2.165,4.048,3.79,3.79,0,0,0-.211.662c-.02.089-.036.178-.049.267A12.375,12.375,0,0,1,45.594,54.4a.385.385,0,0,0-.765.088,13.148,13.148,0,0,0,3.662,7.666.387.387,0,0,0,.194.106A3.842,3.842,0,1,0,56.231,60.9a8.034,8.034,0,0,0,1.619.165ZM55.5,62.485a3.071,3.071,0,1,1-6-1.329c.013-.058.028-.115.044-.172a3.066,3.066,0,0,1,2.657-2.22,3,3,0,0,1,.563,0c.072.006.144.015.215.026s.123.021.185.035a3.1,3.1,0,0,1,1.311.647,3.029,3.029,0,0,1,.445.461q.09.116.169.239a3.008,3.008,0,0,1,.257.5A3.057,3.057,0,0,1,55.5,62.485ZM48.146,43.674a3.536,3.536,0,0,1,.446.028,3.586,3.586,0,0,1,.878.222,3.657,3.657,0,0,1,2.321,3.4q0,.167-.015.333a3.634,3.634,0,0,1-.917,2.1,3.664,3.664,0,0,1-.394.378c-.08.066-.164.129-.249.187a3.646,3.646,0,1,1-2.071-6.645Zm12.786.5a4.172,4.172,0,1,1,7.963,1.745,4.073,4.073,0,0,1-.443.745,4.138,4.138,0,0,1-.557.611c-.044.04-.09.08-.136.118a4.108,4.108,0,0,1-.486.344,4.175,4.175,0,0,1-2.169.609,4.128,4.128,0,0,1-.673-.055,8.131,8.131,0,0,0-3.242-2.671A4.167,4.167,0,0,1,60.932,44.172Zm2.8,6.658a.289.289,0,1,1,.542-.2,6.854,6.854,0,0,1-.235,5.266.289.289,0,1,1-.523-.246,6.274,6.274,0,0,0,.216-4.821Zm-5.883-2.16a2.637,2.637,0,1,1-2.637,2.637A2.637,2.637,0,0,1,57.851,48.67ZM55.529,59.456a3.849,3.849,0,0,0-2.2-1.385l-.113-.023a5.007,5.007,0,0,1,9.426.457c-.046.04-.092.08-.14.119A7.31,7.31,0,0,1,55.9,60.028,3.829,3.829,0,0,0,55.529,59.456Z" transform="translate(0 0)" fill="#fff"/>
      <path id="Path_783" data-name="Path 783" d="M87.843,143.482a.119.119,0,0,0,.095.191h1.419v0a1.595,1.595,0,1,0-1.254-.531Z" transform="translate(-41.148 -94.758)" fill="#fff"/>
      <path id="Path_784" data-name="Path 784" d="M251.039,342.72a4.175,4.175,0,0,0-4.17,4.116,10.756,10.756,0,0,1-2.533.775c-.3.053-.608.094-.911.122a.385.385,0,0,0,.034.768h.035c.325-.03.653-.073.976-.13a11.561,11.561,0,0,0,2.468-.724,4.107,4.107,0,0,0,.219.77,12.3,12.3,0,0,1-4.7.927c-.351,0-.7-.015-1.053-.044a.385.385,0,0,0-.065.767c.369.031.745.047,1.117.047A13.065,13.065,0,0,0,247.5,349.1a4.17,4.17,0,1,0,3.534-6.385Zm0,7.571a3.4,3.4,0,0,1-2.825-1.508,3.338,3.338,0,0,1-.354-.683,3.405,3.405,0,0,1-.192-1.661,3.4,3.4,0,1,1,3.37,3.852Z" transform="translate(-184.607 -284.025)" fill="#fff"/>
      <path id="Path_785" data-name="Path 785" d="M364.154,370.97h-2.295a1.231,1.231,0,0,0-1.229,1.23v2.295a1.207,1.207,0,0,0,.086.45,1.231,1.231,0,0,0,1.143.779h2.295a1.231,1.231,0,0,0,1.23-1.229V372.2A1.231,1.231,0,0,0,364.154,370.97Zm.46,3.524a.46.46,0,0,1-.46.459h-2.295a.459.459,0,0,1-.457-.412.382.382,0,0,1,0-.047V372.2a.46.46,0,0,1,.459-.46h2.295a.461.461,0,0,1,.46.46Z" transform="translate(-296.575 -310.463)" fill="#fff"/>
      <path id="Path_786" data-name="Path 786" d="M389.007,398.73h-.042a.576.576,0,0,0-.575.575v.042a.576.576,0,0,0,.575.575h.042a.575.575,0,0,0,.575-.575v-.042A.575.575,0,0,0,389.007,398.73Z" transform="translate(-322.555 -336.443)" fill="#fff"/>
      <path id="Path_787" data-name="Path 787" d="M158.874,372.6a.879.879,0,0,0-.521.171l-.118.086-.117-.086a.885.885,0,0,0-1.326.344.815.815,0,0,0-.056.16.876.876,0,0,0-.026.211.886.886,0,0,0,.287.654l.273.25.726.664a.354.354,0,0,0,.478,0l1-.914a.886.886,0,0,0-.6-1.539Z" transform="translate(-105.734 -311.989)" fill="#fff"/>
    </g>
  </g>
</svg>
