<svg xmlns="http://www.w3.org/2000/svg" width="40" height="40" viewBox="0 0 40 40">
  <g id="Group_764" data-name="Group 764" transform="translate(-1905 -1451)">
    <rect id="Rectangle_1784" data-name="Rectangle 1784" width="40" height="40" rx="8" transform="translate(1905 1451)" fill="#0252c9"/>
    <path id="Path_1578" data-name="Path 1578" d="M33.538,33.147h2.419V28.365H34.87a.9.9,0,0,1-.53-1.625V24.949l1.006-.155v1.385l1.019-.558v-.986l1.134-.175V25l.8-.44V12.282l-4.764,2.036ZM37.5,23.231l-1.134.213V21.38L37.5,21.1Zm0-3.359-1.134.318V18.124l1.134-.385v2.133Zm0-5.358v2l-1.134.423V15Zm-3.16,1.355,1.007-.432v1.879l-1.007.373V15.869Zm0,2.942,1.007-.341v2.008l-1.007.282V18.811Zm0,3.067,1.007-.248v2.008l-1.007.189V21.878Zm9.566-7.44V24.3L42.04,23.274a1.425,1.425,0,0,0-1.391,0l-1.786.979V12.282ZM28.289,20.029V33.147h4.689V18.024Zm2,9.922h-.819V28.38l.819-.08Zm0-2.59-.819.112V25.9l.819-.168Zm0-2.57-.819.2V23.416l.819-.257Zm0-2.571-.819.29V21.037l.82-.345V22.22Zm1.781,7.73H31.13V28.218l.943-.092v1.825Zm0-2.836-.943.13V25.556l.943-.195Zm0-2.764-.943.232v-1.69l.943-.3Zm0-2.765-.944.336V20.34l.944-.4Zm15.907,5.581-6.211-3.4a.865.865,0,0,0-.853,0l-6.211,3.4a.339.339,0,0,0,.163.637h1.647v5.343h1.259V29.815h-.35a.28.28,0,0,1,0-.56h3.108a.28.28,0,0,1,0,.56h-.35v3.333h5.986V27.8h1.647a.339.339,0,0,0,.163-.637Zm-7.514-1.177a.877.877,0,1,1,.877.877A.877.877,0,0,1,40.468,25.991Zm2.65,3.168H41.883V27.8h1.235Zm1.795,0H43.678V27.8h1.235ZM26.759,34.682v-.624a.351.351,0,0,1,.35-.35H47.387a.351.351,0,0,1,.35.35v.624a.351.351,0,0,1-.35.35H27.109A.351.351,0,0,1,26.759,34.682Z" transform="translate(1887.542 1447.343)" fill="#fff"/>
  </g>
</svg>
