<svg xmlns="http://www.w3.org/2000/svg" width="40" height="40" viewBox="0 0 40 40">
  <g id="Group_761" data-name="Group 761" transform="translate(-61 -381.97)">
    <rect id="Rectangle_1780" data-name="Rectangle 1780" width="40" height="40" rx="8" transform="translate(61 381.97)" fill="#0252c9"/>
    <g id="Group_455" data-name="Group 455" transform="translate(59.32 384.97)">
      <path id="Path_774" data-name="Path 774" d="M24.747,47.977l-.137.15-.156.17-.134.145-.152.164-.125.134-.151.16-.118.124-.145.152-.111.116-.129.134-.118.122-.113.115-.11.112-.114.116-.091.092-.118.118-.069.069-.116.115-.054.053-.1.1-.054.053-.079.076-.045.044-.066.064-.035.034-.138.132a.453.453,0,0,1-.619,0l-.138-.132-.035-.034-.066-.064-.039-.038-.089-.086-.038-.038-.11-.109-.053-.053-.116-.115L20.6,50.1l-.124-.124L20.4,49.9l-.127-.129-.1-.1-.129-.132-.1-.1-.148-.153-.093-.1-.165-.173-.1-.1-.176-.187-.1-.105-.181-.195-.1-.113-.188-.2-.1-.115-.095-.1c-3.524.5-5.366,1.682-5.366,2.617,0,1.339,3.5,2.83,8.531,2.83s8.531-1.491,8.531-2.83c0-.935-1.842-2.12-5.366-2.617l-.079.087Z" transform="translate(-0.248 -24.049)" fill="#fff"/>
      <path id="Path_775" data-name="Path 775" d="M30.74,16.114A5.943,5.943,0,1,0,24.8,22.057,5.95,5.95,0,0,0,30.74,16.114Zm-6.4,0v-3.9a.452.452,0,0,1,.9,0v3.716l1.79,1.79a.452.452,0,1,1-.639.639l-1.923-1.923a.452.452,0,0,1-.132-.32Z" transform="translate(-3.383 -3.381)" fill="#fff"/>
      <path id="Path_776" data-name="Path 776" d="M21.208,25.629l.206.2c.487-.475,1.5-1.483,2.652-2.771,3.923-4.359,6.082-8.026,6.082-10.327a8.734,8.734,0,0,0-17.468,0c0,2.3,2.16,5.968,6.082,10.326C19.773,24.187,20.673,25.1,21.208,25.629Zm-6.641-12.9a6.847,6.847,0,1,1,6.847,6.847,6.855,6.855,0,0,1-6.847-6.847Z" fill="#fff"/>
    </g>
  </g>
</svg>
