<svg id="Group_397" data-name="Group 397" xmlns="http://www.w3.org/2000/svg" xmlns:xlink="http://www.w3.org/1999/xlink" width="34.639" height="34.262" viewBox="0 0 34.639 34.262">
  <defs>
    <clipPath id="clip-path">
      <rect id="Rectangle_1602" data-name="Rectangle 1602" width="34.639" height="34.262" fill="#fff"/>
    </clipPath>
  </defs>
  <g id="Group_396" data-name="Group 396" transform="translate(0 0)" clip-path="url(#clip-path)">
    <path id="Path_708" data-name="Path 708" d="M23.97,9.062V14.2a2.6,2.6,0,0,0,1.27,1.27h5.14c.163.8-.69.886-1.152,1.449-.85,1.035-.539,2.034-.777,3.214l-6.177,6.159a15.722,15.722,0,0,1-1.72.094,2.8,2.8,0,0,0-1.905,4.382,63.723,63.723,0,0,0,6.043,6.05,2.774,2.774,0,0,0,4.449-1.6c.131-.782-.27-1.857.449-2.336.272-.182.626.134.726.372a34.9,34.9,0,0,1,.063,4.533,1.958,1.958,0,0,1-1.991,1.637c-5.6.48-11.873-.372-17.544,0a2.035,2.035,0,0,1-2.113-1.878l0-26.37c-.205-.667.8-2.111,1.4-2.111Zm-2.085,7.527c-.133-.134-.443-.139-.631-.155a55.419,55.419,0,0,0-7.747,0c-.707.08-.883.506-.493,1.1l8.78.049c.321-.154.308-.782.091-1m-2.087,3.6H13.146c-.395,0-.395,1.209,0,1.209H19.8c.48,0,.608-1.109,0-1.209M13.17,23.962c-.359.106-.383.559-.308.862.083.241.419.3.644.325,1.875.217,4.136-.17,6.055,0a.626.626,0,0,0,.236-1.216Zm1.339,5.809a4.266,4.266,0,0,0-3.332,2.6,4.026,4.026,0,0,0,6.928,3.9c.468-.582,1.606-3.163.238-3.1-.679.033-.586.992-.718,1.408A2.779,2.779,0,1,1,13.9,31.219c.495-.181,1.746-.126,1.672-.885-.058-.588-.586-.614-1.059-.563" transform="translate(-5.098 -5.31)" fill="#fff"/>
    <path id="Path_709" data-name="Path 709" d="M18.388,2.422H5.509a3.541,3.541,0,0,0-2.7,1.654c-.065.121-.384.9-.384.946V30.358A2.043,2.043,0,0,1,0,28.849L0,1.63A1.785,1.785,0,0,1,1.639,0L15.67,0c.819.1,2.081,1.838,2.718,2.422" transform="translate(0 0)" fill="#fff"/>
    <rect id="Rectangle_1601" data-name="Rectangle 1601" width="6.923" height="7.27" transform="matrix(0.707, -0.707, 0.707, 0.707, 18.754, 21.226)" fill="#fff"/>
    <path id="Path_710" data-name="Path 710" d="M60.738,28.64a1.616,1.616,0,0,1,1.423.335l5.8,5.81c.971,2.686-1.844,2.58-3.681,2.35L59.748,32.6a5.892,5.892,0,0,1-.11-2.76,1.527,1.527,0,0,1,1.1-1.2" transform="translate(-34.884 -16.757)" fill="#fff"/>
    <path id="Path_711" data-name="Path 711" d="M35.884,53.743a6.869,6.869,0,0,1,2.493.1l4.557,4.513a9.513,9.513,0,0,1,.1,2.656,1.566,1.566,0,0,1-2.588.917,66.142,66.142,0,0,1-5.676-5.692,1.543,1.543,0,0,1,1.112-2.5" transform="translate(-20.186 -31.457)" fill="#fff"/>
    <path id="Path_712" data-name="Path 712" d="M65.177,56.113l5.674,5.668c.585.938-1.56,3.034-2.239,3.215a1.355,1.355,0,0,1-1.274-.184l-5.373-5.4Z" transform="translate(-36.311 -32.882)" fill="#fff"/>
    <path id="Path_713" data-name="Path 713" d="M53.343,14.776H48.808a1.845,1.845,0,0,1-.3-.423V9.939Z" transform="translate(-28.424 -5.824)" fill="#fff"/>
  </g>
</svg>
