<svg xmlns="http://www.w3.org/2000/svg" width="26.596" height="27.926" viewBox="0 0 26.596 27.926">
  <g id="Group_468" data-name="Group 468" transform="translate(0.001)">
    <path id="Path_789" data-name="Path 789" d="M5.016,99.628V96H1.978A1.968,1.968,0,0,0,0,97.978v18.154a1.978,1.978,0,0,0,1.979,1.991h.439V102.464a2.824,2.824,0,0,1,2.6-2.836Zm0,0" transform="translate(0 -90.197)"/>
    <path id="Path_790" data-name="Path 790" d="M115.133,0H97V9.429h18.133ZM99.019,1.572h5.68a.423.423,0,0,1,0,.846h-5.68a.423.423,0,0,1,0-.846Zm14.143,6.286H99.019a.423.423,0,0,1,0-.846h14.143a.423.423,0,0,1,0,.846Zm0-1.813H99.019a.423.423,0,0,1,0-.846h14.143a.423.423,0,0,1,0,.846Zm0-1.813H99.019a.423.423,0,0,1,0-.846h14.143a.423.423,0,0,1,0,.846Zm0,0" transform="translate(-91.137)"/>
    <path id="Path_791" data-name="Path 791" d="M217.82,297.676l-.457-.926-.457.926a.423.423,0,0,1-.319.231l-1.021.149.739.72a.423.423,0,0,1,.122.375l-.174,1.017.914-.48a.424.424,0,0,1,.394,0l.914.48-.175-1.017a.424.424,0,0,1,.122-.375l.739-.72-1.021-.149A.423.423,0,0,1,217.82,297.676Zm0,0" transform="translate(-202.537 -278.813)"/>
    <path id="Path_792" data-name="Path 792" d="M162.417,222.433a3.519,3.519,0,0,1-3.684-.242l-1.6,1.82.127.1c1.491,1.182.97,2.519.465,3.812l-.033.085c-.587,1.5-1.2,3.053.535,4.895a2.393,2.393,0,0,0,2.046.74,3.367,3.367,0,0,1,2.083.771,3.607,3.607,0,0,1,2.132-.771h.229l.144,0,.071,0a2.239,2.239,0,0,0,1.683-.735c1.745-1.858,1.069-3.588.525-4.978-.108-.277-.185-.485-.251-.673a4.063,4.063,0,0,1-.277-1.359,2.212,2.212,0,0,1,.972-1.781l.126-.1-1.6-1.817a3.519,3.519,0,0,1-3.685.242Zm3,5.577-1.194,1.164.282,1.643a.423.423,0,0,1-.614.446l-1.475-.776-1.475.776a.423.423,0,0,1-.614-.446l.282-1.643-1.194-1.163a.423.423,0,0,1,.234-.722l1.649-.24.737-1.495a.423.423,0,0,1,.759,0l.737,1.495,1.649.24a.423.423,0,0,1,.234.722Zm0,0" transform="translate(-147.592 -208.761)"/>
    <path id="Path_793" data-name="Path 793" d="M75.353,170H55.973A1.974,1.974,0,0,0,54,171.99v15.659H75.353a1.978,1.978,0,0,0,1.978-1.991V171.99A1.978,1.978,0,0,0,75.353,170Zm-3.47,5.062a.423.423,0,0,1-.157.294l-.474.38a1.366,1.366,0,0,0-.653,1.126,3.3,3.3,0,0,0,.231,1.075c.061.178.135.376.239.642.563,1.441,1.415,3.618-.7,5.867a3.085,3.085,0,0,1-2.262,1l-.082,0-.16,0h-.234a2.731,2.731,0,0,0-1.843.8.423.423,0,0,1-.306.13h-.011a.413.413,0,0,1-.309-.136,2.416,2.416,0,0,0-1.755-.773H63.4a3.2,3.2,0,0,1-2.645-1.016c-2.1-2.233-1.327-4.208-.708-5.789l.033-.087c.579-1.485.712-2.117-.2-2.843l-.475-.379a.424.424,0,0,1-.054-.611l2.142-2.431a.423.423,0,0,1,.565-.063,2.671,2.671,0,0,0,3.266.3.423.423,0,0,1,.486,0,2.671,2.671,0,0,0,3.266-.3.423.423,0,0,1,.565.063l2.142,2.428a.423.423,0,0,1,.1.317Zm0,0" transform="translate(-50.736 -159.724)"/>
  </g>
</svg>
