<svg xmlns="http://www.w3.org/2000/svg" width="26.929" height="30.294" viewBox="0 0 26.929 30.294">
  <g id="Group_457" data-name="Group 457" transform="translate(-28.437)">
    <path id="Path_777" data-name="Path 777" d="M64.522,0a3.554,3.554,0,0,0-3.551,3.551,3.551,3.551,0,1,0,7.1,0A3.554,3.554,0,0,0,64.522,0Z" transform="translate(-30.609 0)" fill="#262626"/>
    <path id="Path_778" data-name="Path 778" d="M338.072,3.551a3.551,3.551,0,0,0-7.1,0,3.551,3.551,0,1,0,7.1,0Z" transform="translate(-284.631)" fill="#262626"/>
    <path id="Path_779" data-name="Path 779" d="M175.166,367.1c2.066,1.734,2.575,2.222,3.128,2.692a2.858,2.858,0,0,0,3.7-.012c.963-.834,2.006-1.8,2.945-2.618a3.5,3.5,0,0,1-2.055-4.879,6.34,6.34,0,0,0-5.866,0,3.533,3.533,0,0,1-1.85,4.813Z" transform="translate(-138.046 -340.168)" fill="#262626"/>
    <circle id="Ellipse_7" data-name="Ellipse 7" cx="1.775" cy="1.775" r="1.775" transform="translate(40.126 14.261)" fill="#262626"/>
    <path id="Path_780" data-name="Path 780" d="M41.9,127.3a7.226,7.226,0,0,0-6.288-4.085c-4.091,0-7.176,3.316-7.176,7.714,0,3.884,2.642,6.733,6.817,10.336a1.775,1.775,0,0,0,1.705-3.02c-3.811-3.462-4.972-5.073-4.972-6.878h1.775c0,1.118,1.091,2.532,4.084,5.279a8.118,8.118,0,0,1,8.11,0c2.993-2.747,4.084-4.161,4.084-5.279h1.775c0,1.8-1.162,3.416-4.972,6.878A1.766,1.766,0,0,0,49,141.028c4.44-4.045,6.364-6.554,6.364-10.1,0-4.4-3.085-7.714-7.176-7.714A7.225,7.225,0,0,0,41.9,127.3Zm3.551,4.66a3.551,3.551,0,1,1-3.551-3.551A3.554,3.554,0,0,1,45.452,131.957Z" transform="translate(0 -115.92)" fill="#262626"/>
  </g>
</svg>
