<svg id="Group_684" data-name="Group 684" xmlns="http://www.w3.org/2000/svg" xmlns:xlink="http://www.w3.org/1999/xlink" width="150.525" height="150.966" viewBox="0 0 150.525 150.966">
  <defs>
    <linearGradient id="linear-gradient" x1="0.039" y1="0.964" x2="0.97" y2="0.039" gradientUnits="objectBoundingBox">
      <stop offset="0"/>
      <stop offset="1" stop-color="#0252c9"/>
    </linearGradient>
    <linearGradient id="linear-gradient-2" x1="0.906" y1="0.051" x2="0.136" y2="0.931" gradientUnits="objectBoundingBox">
      <stop offset="0" stop-color="#0252c9"/>
      <stop offset="1"/>
    </linearGradient>
  </defs>
  <rect id="Rectangle_1598" data-name="Rectangle 1598" width="150.525" height="150.966" rx="8" fill="url(#linear-gradient)"/>
  <path id="Path_706" data-name="Path 706" d="M32.2,18.818a25.088,25.088,0,0,1-14.922-4.577A30.138,30.138,0,0,1,7.223,1.369,47.758,47.758,0,0,1,3.6-17.891a47.333,47.333,0,0,1,3.623-19.26A30.379,30.379,0,0,1,17.235-49.927,24.875,24.875,0,0,1,32.109-54.5a25.4,25.4,0,0,1,15.113,4.577A29.851,29.851,0,0,1,57.233-37.1a47.968,47.968,0,0,1,3.576,19.212A47.968,47.968,0,0,1,57.233,1.322,30.19,30.19,0,0,1,47.221,14.194,25.061,25.061,0,0,1,32.2,18.818Zm.1-13.349A10.676,10.676,0,0,0,39.737,2.7,17.515,17.515,0,0,0,44.409-5.3a42.932,42.932,0,0,0,1.621-12.586,42.444,42.444,0,0,0-1.621-12.538,17.284,17.284,0,0,0-4.72-7.961A10.85,10.85,0,0,0,32.2-41.155a10.8,10.8,0,0,0-7.532,2.765A17.507,17.507,0,0,0,20-30.429a42.444,42.444,0,0,0-1.621,12.538A42.552,42.552,0,0,0,20-5.4a17.634,17.634,0,0,0,4.72,8.057A10.869,10.869,0,0,0,32.3,5.469Zm65.885,12.2V2.418H66.72v-12.4L97.231-53.36h15.732V-9.977h10.965v12.4H112.963V17.674ZM77.494-4.638,74.729-9.977H98.184V-41.918l3.719,1.144Z" transform="translate(26.597 126.851)" fill="url(#linear-gradient-2)"/>
</svg>
