<svg id="Group_686" data-name="Group 686" xmlns="http://www.w3.org/2000/svg" xmlns:xlink="http://www.w3.org/1999/xlink" width="150.525" height="150.966" viewBox="0 0 150.525 150.966">
  <defs>
    <linearGradient id="linear-gradient" x1="0.039" y1="0.964" x2="0.97" y2="0.039" gradientUnits="objectBoundingBox">
      <stop offset="0"/>
      <stop offset="1" stop-color="#0252c9"/>
    </linearGradient>
    <linearGradient id="linear-gradient-2" x1="0.844" x2="0.136" y2="0.923" gradientUnits="objectBoundingBox">
      <stop offset="0" stop-color="#0252c9"/>
      <stop offset="1"/>
    </linearGradient>
  </defs>
  <rect id="Rectangle_1603" data-name="Rectangle 1603" width="150.525" height="150.966" rx="8" fill="url(#linear-gradient)"/>
  <path id="Path_717" data-name="Path 717" d="M32.2,18.818a25.088,25.088,0,0,1-14.922-4.577A30.138,30.138,0,0,1,7.223,1.369,47.758,47.758,0,0,1,3.6-17.891a47.333,47.333,0,0,1,3.623-19.26A30.379,30.379,0,0,1,17.235-49.927,24.875,24.875,0,0,1,32.109-54.5a25.4,25.4,0,0,1,15.113,4.577A29.851,29.851,0,0,1,57.233-37.1a47.968,47.968,0,0,1,3.576,19.212A47.968,47.968,0,0,1,57.233,1.322,30.19,30.19,0,0,1,47.221,14.194,25.061,25.061,0,0,1,32.2,18.818Zm.1-13.349A10.676,10.676,0,0,0,39.737,2.7,17.515,17.515,0,0,0,44.409-5.3a42.932,42.932,0,0,0,1.621-12.586,42.444,42.444,0,0,0-1.621-12.538,17.284,17.284,0,0,0-4.72-7.961A10.85,10.85,0,0,0,32.2-41.155a10.8,10.8,0,0,0-7.532,2.765A17.507,17.507,0,0,0,20-30.429a42.444,42.444,0,0,0-1.621,12.538A42.552,42.552,0,0,0,20-5.4a17.634,17.634,0,0,0,4.72,8.057A10.869,10.869,0,0,0,32.3,5.469ZM92.463,18.818a26.986,26.986,0,0,1-13.063-3.1,23.161,23.161,0,0,1-8.963-8.438A22.69,22.69,0,0,1,67.2-4.733a33.956,33.956,0,0,1,.667-6.674,29.716,29.716,0,0,1,2.67-7.342A56.911,56.911,0,0,1,76.54-27.9L96.277-53.36h17.639L89.984-22.753,87.6-26.091a16.885,16.885,0,0,1,2.574-1.049,17.871,17.871,0,0,1,2.431-.572,15.993,15.993,0,0,1,2.527-.191,22.869,22.869,0,0,1,11.68,2.956,21.418,21.418,0,0,1,8.009,8.057A22.783,22.783,0,0,1,117.73-5.4a23.98,23.98,0,0,1-3.242,12.443,23.263,23.263,0,0,1-8.915,8.629A26.584,26.584,0,0,1,92.463,18.818Zm0-13.349a10.474,10.474,0,0,0,5.292-1.335A10.194,10.194,0,0,0,101.521.368a10.793,10.793,0,0,0,1.43-5.578,10.476,10.476,0,0,0-1.43-5.578,10.419,10.419,0,0,0-3.766-3.671,10.474,10.474,0,0,0-5.292-1.335,10.55,10.55,0,0,0-5.244,1.335,10.307,10.307,0,0,0-3.814,3.671,10.476,10.476,0,0,0-1.43,5.578A10.794,10.794,0,0,0,83.405.368a10.087,10.087,0,0,0,3.814,3.766A10.55,10.55,0,0,0,92.463,5.469Z" transform="translate(32.794 126.851)" fill="url(#linear-gradient-2)"/>
</svg>
