<svg id="Group_685" data-name="Group 685" xmlns="http://www.w3.org/2000/svg" xmlns:xlink="http://www.w3.org/1999/xlink" width="150.525" height="150.966" viewBox="0 0 150.525 150.966">
  <defs>
    <linearGradient id="linear-gradient" x1="0.039" y1="0.964" x2="0.97" y2="0.039" gradientUnits="objectBoundingBox">
      <stop offset="0"/>
      <stop offset="1" stop-color="#0252c9"/>
    </linearGradient>
    <linearGradient id="linear-gradient-2" x1="0.168" y1="1" x2="0.956" y2="0.051" xlink:href="#linear-gradient"/>
  </defs>
  <rect id="Rectangle_1600" data-name="Rectangle 1600" width="150.525" height="150.966" rx="8" fill="url(#linear-gradient)"/>
  <path id="Path_714" data-name="Path 714" d="M32.2,18.818a25.088,25.088,0,0,1-14.922-4.577A30.138,30.138,0,0,1,7.223,1.369,47.758,47.758,0,0,1,3.6-17.891a47.333,47.333,0,0,1,3.623-19.26A30.379,30.379,0,0,1,17.235-49.927,24.875,24.875,0,0,1,32.109-54.5a25.4,25.4,0,0,1,15.113,4.577A29.851,29.851,0,0,1,57.233-37.1a47.968,47.968,0,0,1,3.576,19.212A47.968,47.968,0,0,1,57.233,1.322,30.19,30.19,0,0,1,47.221,14.194,25.061,25.061,0,0,1,32.2,18.818Zm.1-13.349A10.676,10.676,0,0,0,39.737,2.7,17.515,17.515,0,0,0,44.409-5.3a42.932,42.932,0,0,0,1.621-12.586,42.444,42.444,0,0,0-1.621-12.538,17.284,17.284,0,0,0-4.72-7.961A10.85,10.85,0,0,0,32.2-41.155a10.8,10.8,0,0,0-7.532,2.765A17.507,17.507,0,0,0,20-30.429a42.444,42.444,0,0,0-1.621,12.538A42.552,42.552,0,0,0,20-5.4a17.634,17.634,0,0,0,4.72,8.057A10.869,10.869,0,0,0,32.3,5.469ZM91.8,18.818a28.444,28.444,0,0,1-10.87-2.145,25.241,25.241,0,0,1-8.963-6.1A19.262,19.262,0,0,1,67.1,1.083L80.164-3.3A11.927,11.927,0,0,0,84.74,3.372a12.437,12.437,0,0,0,7.056,2.1,11.749,11.749,0,0,0,5.816-1.383A9.728,9.728,0,0,0,101.474.178a12.023,12.023,0,0,0,1.383-5.864,11.75,11.75,0,0,0-1.383-5.816,9.81,9.81,0,0,0-3.862-3.862A11.75,11.75,0,0,0,91.8-16.747a12.388,12.388,0,0,0-6.1,1.478,8.74,8.74,0,0,0-3.909,4.529L69.675-13.6,75.4-53.36h39.664v12.4H81.4l5.53-6.674L83.024-18.081l-4-3.528a14.691,14.691,0,0,1,6.055-5.721,21.476,21.476,0,0,1,9.487-1.812,24,24,0,0,1,12.3,3,20.7,20.7,0,0,1,7.961,8.248,25.436,25.436,0,0,1,2.813,12.2A23.69,23.69,0,0,1,114.25,6.852a24.17,24.17,0,0,1-9.2,8.772A27.076,27.076,0,0,1,91.8,18.818Z" transform="translate(32.89 126.851)" fill="url(#linear-gradient-2)"/>
</svg>
