<svg id="Group_682" data-name="Group 682" xmlns="http://www.w3.org/2000/svg" xmlns:xlink="http://www.w3.org/1999/xlink" width="150.525" height="150.966" viewBox="0 0 150.525 150.966">
  <defs>
    <linearGradient id="linear-gradient" x1="0.988" y1="0.026" x2="0.024" y2="0.981" gradientUnits="objectBoundingBox">
      <stop offset="0" stop-color="#0252c9"/>
      <stop offset="1"/>
    </linearGradient>
    <linearGradient id="linear-gradient-2" x1="0.854" y1="-0.3" x2="0.245" y2="0.971" xlink:href="#linear-gradient"/>
  </defs>
  <rect id="Rectangle_1582" data-name="Rectangle 1582" width="150.525" height="150.966" rx="8" fill="url(#linear-gradient)"/>
  <path id="Path_69" data-name="Path 69" d="M37.721-14.446A27.009,27.009,0,0,1,21.661-19.4,32.291,32.291,0,0,1,10.817-33.346,52.335,52.335,0,0,1,6.944-54.209a51.868,51.868,0,0,1,3.873-20.862A32.542,32.542,0,0,1,21.61-88.911a26.779,26.779,0,0,1,16.008-4.957,27.281,27.281,0,0,1,16.318,4.957A32.5,32.5,0,0,1,64.729-75.02,51.959,51.959,0,0,1,68.6-54.209,51.959,51.959,0,0,1,64.729-33.4,32.869,32.869,0,0,1,53.936-19.455,26.917,26.917,0,0,1,37.721-14.446Zm.1-12.7a13.6,13.6,0,0,0,8.985-3.357,20.735,20.735,0,0,0,5.732-9.3,45.755,45.755,0,0,0,2.014-14.407,45.755,45.755,0,0,0-2.014-14.407,20.136,20.136,0,0,0-5.784-9.243,13.943,13.943,0,0,0-9.037-3.3,13.737,13.737,0,0,0-8.985,3.3A20.358,20.358,0,0,0,23-68.616a47.636,47.636,0,0,0-2.117,14.407A47.267,47.267,0,0,0,23-39.9a20.88,20.88,0,0,0,5.784,9.347A13.673,13.673,0,0,0,37.824-27.15ZM92.149-15.686V-80.648l-14.872-.1V-92.629H106.2v76.943Z" transform="translate(41.426 158.757)" fill="url(#linear-gradient-2)"/>
</svg>
