<svg id="Group_751" data-name="Group 751" xmlns="http://www.w3.org/2000/svg" xmlns:xlink="http://www.w3.org/1999/xlink" width="150.525" height="150.966" viewBox="0 0 150.525 150.966">
  <defs>
    <linearGradient id="linear-gradient" x1="0.039" y1="0.964" x2="0.97" y2="0.039" gradientUnits="objectBoundingBox">
      <stop offset="0"/>
      <stop offset="1" stop-color="#0252c9"/>
    </linearGradient>
    <linearGradient id="linear-gradient-2" x1="0.818" x2="0.191" y2="1" gradientUnits="objectBoundingBox">
      <stop offset="0" stop-color="#0252c9"/>
      <stop offset="1"/>
    </linearGradient>
  </defs>
  <rect id="Rectangle_1582" data-name="Rectangle 1582" width="150.525" height="150.966" rx="8" fill="url(#linear-gradient)"/>
  <path id="Path_693" data-name="Path 693" d="M31.455,8.047A23.993,23.993,0,0,1,17.185,3.67,28.822,28.822,0,0,1,7.565-8.64,45.674,45.674,0,0,1,4.1-27.059,45.266,45.266,0,0,1,7.565-45.478,29.053,29.053,0,0,1,17.139-57.7a23.789,23.789,0,0,1,14.225-4.377A24.291,24.291,0,0,1,45.817-57.7a28.548,28.548,0,0,1,9.574,12.264,45.874,45.874,0,0,1,3.419,18.374A45.874,45.874,0,0,1,55.391-8.685a28.872,28.872,0,0,1-9.574,12.31A23.967,23.967,0,0,1,31.455,8.047Zm.091-12.766a10.21,10.21,0,0,0,7.112-2.644,16.75,16.75,0,0,0,4.468-7.66,41.057,41.057,0,0,0,1.55-12.036,40.591,40.591,0,0,0-1.55-11.991,16.53,16.53,0,0,0-4.514-7.614,10.376,10.376,0,0,0-7.158-2.644,10.332,10.332,0,0,0-7.2,2.644,16.743,16.743,0,0,0-4.468,7.614,40.591,40.591,0,0,0-1.55,11.991,40.694,40.694,0,0,0,1.55,11.945A16.864,16.864,0,0,0,24.3-7.409,10.394,10.394,0,0,0,31.547-4.719ZM65.376,6.953V-3.989L83.613-22.773q5.38-5.562,8.161-8.8A26.776,26.776,0,0,0,95.6-37a9.874,9.874,0,0,0,1.049-4.286,7.457,7.457,0,0,0-2.416-5.881,8.8,8.8,0,0,0-6.064-2.143,10.957,10.957,0,0,0-6.656,2.143,12.333,12.333,0,0,0-4.286,6.52L64.92-44.658a19.671,19.671,0,0,1,4.559-9.21,23.622,23.622,0,0,1,8.389-6.064,25.553,25.553,0,0,1,10.3-2.143A27.879,27.879,0,0,1,100.026-59.7a18.643,18.643,0,0,1,7.933,6.656,17.8,17.8,0,0,1,2.827,10.03,20.8,20.8,0,0,1-1.277,7.158,29.439,29.439,0,0,1-3.875,7.112,69.8,69.8,0,0,1-6.7,7.8L83.34-4.9h28.085V6.953Z" transform="translate(37.776 136.233)" fill="url(#linear-gradient-2)"/>
</svg>
