<svg id="Group_390" data-name="Group 390" xmlns="http://www.w3.org/2000/svg" xmlns:xlink="http://www.w3.org/1999/xlink" width="36.19" height="36.2" viewBox="0 0 36.19 36.2">
  <defs>
    <clipPath id="clip-path">
      <rect id="Rectangle_1596" data-name="Rectangle 1596" width="36.19" height="36.2" fill="#fff"/>
    </clipPath>
  </defs>
  <g id="Group_389" data-name="Group 389" clip-path="url(#clip-path)">
    <path id="Path_680" data-name="Path 680" d="M245.758,135.48a5.366,5.366,0,1,1-4.434,6.444,5.378,5.378,0,0,1,4.434-6.444m4.025,2.835-4.442,4.41c-.131,0-1.532-1.692-1.876-1.835a.647.647,0,0,0-.533-.021.481.481,0,0,0-.205.515c.151.485,1.942,1.827,2.295,2.372l.523.04,4.691-4.631a.49.49,0,0,0-.451-.851" transform="translate(-215.754 -121.141)" fill="#fff"/>
    <path id="Path_681" data-name="Path 681" d="M32.576,57.953H19.462v-2.8c0-.237.4-.678.606-.816.9-.617,2.294-1.035,3.241-1.66a3.942,3.942,0,0,0,5.422,0c.733.546,3.282,1.4,3.678,2.092a3.922,3.922,0,0,1,.168.464Z" transform="translate(-17.408 -47.113)" fill="#fff"/>
    <path id="Path_682" data-name="Path 682" d="M212.147,58.041H199.111V55.078a1.441,1.441,0,0,1,.448-.579l3.34-1.716c.163-.027.458.333.611.425a3.846,3.846,0,0,0,4.8-.437L211.7,54.5a1.441,1.441,0,0,1,.448.579Z" transform="translate(-178.096 -47.2)" fill="#fff"/>
    <path id="Path_683" data-name="Path 683" d="M42.889,112.439v4.266H59.321l-.514.948H52.369v4.977h6.36l.513.948H52.369v2.173a.843.843,0,0,1-.438.437c-.138.014-.51-.184-.51-.279v-2.331H38.78v2.252c0,.235-.777.583-.933.064.06-.874-.132-1.989-.019-2.833.017-.128.181-.43.281-.43H51.421v-4.977h-9.2a1.85,1.85,0,0,1-.276-.277v-4.938Z" transform="translate(-33.803 -100.572)" fill="#fff"/>
    <path id="Path_684" data-name="Path 684" d="M137.755,307.576h-9.006v-2.489c0-.318,2.156-1.428,2.507-1.689.152-.023.62.37.849.467a3.035,3.035,0,0,0,3.069-.461c.468.321,2.581,1.3,2.581,1.842Z" transform="translate(-115.16 -271.375)" fill="#fff"/>
    <path id="Path_685" data-name="Path 685" d="M266.5,307.576H257.5v-2.489c0-.318,2.156-1.428,2.507-1.689.153-.023.62.37.849.467a3.035,3.035,0,0,0,3.069-.461c.468.321,2.581,1.3,2.581,1.842Z" transform="translate(-230.32 -271.375)" fill="#fff"/>
    <path id="Path_686" data-name="Path 686" d="M9.006,307.577H0v-2.489c0-.333,2.162-1.4,2.507-1.689.153-.023.619.37.849.467a3.035,3.035,0,0,0,3.069-.461c.468.321,2.581,1.3,2.581,1.842Z" transform="translate(0 -271.377)" fill="#fff"/>
    <path id="Path_687" data-name="Path 687" d="M57.282.037c4.26-.584,4.387,5.92.3,5.667-3.372-.209-3.493-5.228-.3-5.667" transform="translate(-49.164 0)" fill="#fff"/>
    <path id="Path_688" data-name="Path 688" d="M236.7.054c3.937-.539,4.453,5.3.76,5.658-3.728.358-4.242-5.181-.76-5.658" transform="translate(-209.617 -0.017)" fill="#fff"/>
    <path id="Path_689" data-name="Path 689" d="M26.48,265.181a1.9,1.9,0,1,1,.372,3.772,1.9,1.9,0,0,1-.372-3.772" transform="translate(-22.232 -237.177)" fill="#fff"/>
    <path id="Path_690" data-name="Path 690" d="M155.2,265.178a1.9,1.9,0,1,1,.372,3.772,1.9,1.9,0,0,1-.372-3.772" transform="translate(-137.365 -237.174)" fill="#fff"/>
    <path id="Path_691" data-name="Path 691" d="M283.949,265.178a1.9,1.9,0,1,1,.372,3.772,1.9,1.9,0,0,1-.372-3.772" transform="translate(-252.524 -237.174)" fill="#fff"/>
    <path id="Path_692" data-name="Path 692" d="M257.7,112.439v2.015l-.948.593v-2.607Z" transform="translate(-229.651 -100.572)" fill="#fff"/>
  </g>
</svg>
