<svg width="18" height="18" viewBox="0 0 18 18" fill="none" xmlns="http://www.w3.org/2000/svg">
<path d="M0 7.44583C0 6.72185 0.477985 5.87784 1.82796 5.87784L6.06601 5.90183C6.27813 5.914 6.46915 6.03416 6.57186 6.22011C6.67454 6.40608 6.67454 6.6317 6.57186 6.81766C6.46918 7.00361 6.27815 7.12378 6.06601 7.13582L1.82395 7.11388C1.23399 7.11388 1.23399 7.35589 1.23399 7.44784C1.23399 7.59585 1.29401 7.93789 1.83394 7.93789L12.4001 8.01382L10.1901 5.79982C10.0464 5.64146 9.9947 5.42005 10.0536 5.21456C10.1125 5.00895 10.2733 4.84842 10.4791 4.79008C10.6847 4.73162 10.906 4.78381 11.0641 4.92783L13.5841 7.44783C13.9031 7.76566 14.0823 8.19749 14.0823 8.64789C14.0823 9.09817 13.9031 9.52999 13.5841 9.84782L11.0641 12.3678C10.906 12.512 10.6847 12.564 10.4791 12.5057C10.2733 12.4472 10.1124 12.2867 10.0536 12.0812C9.9947 11.8756 10.0464 11.6542 10.1901 11.4958L12.422 9.2499L1.83798 9.1718C0.632037 9.1718 0 8.30381 0 7.44583ZM5.11615 3.44596C5.28006 3.44596 5.43722 3.38088 5.55304 3.26493C5.66899 3.14911 5.73407 2.99195 5.73407 2.82805C5.73407 2.40369 5.90268 1.99669 6.20268 1.69658C6.50278 1.3966 6.90978 1.22798 7.33414 1.22798H15.162C15.5864 1.22798 15.9933 1.39658 16.2934 1.69658C16.5935 1.99668 16.762 2.40369 16.762 2.82805V14.4281C16.762 14.8525 16.5935 15.2593 16.2934 15.5594C15.9933 15.8595 15.5864 16.028 15.162 16.028H7.33784C6.91348 16.028 6.50649 15.8596 6.2065 15.5594C5.9064 15.2593 5.7378 14.8525 5.7378 14.4281C5.74756 14.2584 5.68682 14.0921 5.57004 13.9685C5.45337 13.845 5.29091 13.775 5.12084 13.775C4.95078 13.775 4.78833 13.845 4.67155 13.9685C4.55488 14.0921 4.49414 14.2584 4.5039 14.4281C4.50173 15.1819 4.79906 15.9056 5.33056 16.44C5.86208 16.9745 6.58412 17.2759 7.33787 17.2781H15.1621C15.9144 17.277 16.6357 16.9776 17.1677 16.4456C17.6996 15.9137 17.999 15.1925 18 14.44V2.83999C17.9995 2.08731 17.7004 1.36552 17.1684 0.833172C16.6363 0.3007 15.9147 0.00107988 15.1621 0H7.3379C6.58547 0.00108469 5.86427 0.300462 5.33229 0.832432C4.80031 1.36441 4.50094 2.08561 4.49986 2.83804C4.49986 3.00159 4.5647 3.1584 4.68016 3.27434C4.79562 3.39017 4.9523 3.45549 5.11585 3.45597L5.11615 3.44596Z" fill="#25566B"/>
</svg>
