<svg xmlns="http://www.w3.org/2000/svg" width="25.906" height="26.55" viewBox="0 0 25.906 26.55">
  <path id="Path_1567" data-name="Path 1567" d="M14.4.6A3.107,3.107,0,0,0,12.953,0a3.118,3.118,0,0,0-1.445.6,4.889,4.889,0,0,1-1.388.659,4.769,4.769,0,0,1-1.556.016,2.928,2.928,0,0,0-1.452.075,2.876,2.876,0,0,0-.936,1.095,4.533,4.533,0,0,1-.945,1.2,4.525,4.525,0,0,1-1.38.664,2.833,2.833,0,0,0-1.259.667,2.851,2.851,0,0,0-.379,1.375,4.58,4.58,0,0,1-.353,1.5A4.65,4.65,0,0,1,.9,9.035a2.941,2.941,0,0,0-.876,1.2,3.059,3.059,0,0,0,.248,1.484,5.107,5.107,0,0,1,.333,1.56,5.1,5.1,0,0,1-.333,1.56A3.061,3.061,0,0,0,.028,16.32,2.938,2.938,0,0,0,.9,17.515a4.632,4.632,0,0,1,.956,1.191,4.554,4.554,0,0,1,.353,1.5,2.849,2.849,0,0,0,.379,1.375,2.848,2.848,0,0,0,1.259.667,4.525,4.525,0,0,1,1.38.664,4.513,4.513,0,0,1,.945,1.2A2.885,2.885,0,0,0,7.112,25.2a2.932,2.932,0,0,0,1.452.075,4.785,4.785,0,0,1,1.556.016,4.888,4.888,0,0,1,1.388.659,3.1,3.1,0,0,0,1.445.6,3.119,3.119,0,0,0,1.445-.6,4.865,4.865,0,0,1,1.388-.659,4.751,4.751,0,0,1,1.556-.016,2.932,2.932,0,0,0,1.452-.075,2.875,2.875,0,0,0,.936-1.095,4.538,4.538,0,0,1,.945-1.2,4.524,4.524,0,0,1,1.381-.664,2.836,2.836,0,0,0,1.258-.667,2.846,2.846,0,0,0,.379-1.375,4.578,4.578,0,0,1,.353-1.5A4.657,4.657,0,0,1,25,17.515a2.939,2.939,0,0,0,.876-1.195,3.061,3.061,0,0,0-.248-1.485,5.1,5.1,0,0,1-.333-1.56,5.107,5.107,0,0,1,.333-1.56,3.06,3.06,0,0,0,.248-1.484A2.939,2.939,0,0,0,25,9.035a4.625,4.625,0,0,1-.956-1.19,4.557,4.557,0,0,1-.353-1.5,2.844,2.844,0,0,0-.379-1.375A2.845,2.845,0,0,0,22.055,4.3a4.524,4.524,0,0,1-1.381-.664,4.52,4.52,0,0,1-.945-1.2,2.886,2.886,0,0,0-.936-1.095,2.928,2.928,0,0,0-1.452-.075,4.8,4.8,0,0,1-1.556-.016A4.9,4.9,0,0,1,14.4.6M12.953,21.024a.484.484,0,1,1,0,.968,8.727,8.727,0,1,1,6.035-2.429.483.483,0,1,1-.669-.7,7.752,7.752,0,1,0-5.367,2.158Zm3.507-.837a.483.483,0,1,1,.438.862q-.337.171-.707.32c-.243.1-.489.183-.734.257a.483.483,0,1,1-.276-.925c.225-.068.443-.143.65-.227s.418-.178.629-.286ZM8.577,13.567A.658.658,0,0,1,9.7,13.1l1.817,1.817L16.2,10.234a.658.658,0,0,1,.931.931l-5.15,5.15a.66.66,0,0,1-.931,0L8.77,14.032A.655.655,0,0,1,8.577,13.567Zm-.491,1.15a1.627,1.627,0,0,1,2.3-2.3l1.134,1.134,4-4a1.626,1.626,0,0,1,2.3,2.3L12.671,17a1.628,1.628,0,0,1-2.3,0Z" fill="#0252c9" fill-rule="evenodd"/>
</svg>
