<svg xmlns="http://www.w3.org/2000/svg" width="19.878" height="28.777" viewBox="0 0 19.878 28.777">
  <g id="Group_455" data-name="Group 455" transform="translate(-12.68 -4)">
    <path id="Path_774" data-name="Path 774" d="M26.35,47.989l-.155.171-.177.193-.153.165-.173.186-.143.152-.171.182-.134.141-.165.173-.127.132-.147.152-.134.138-.128.131-.125.128-.13.132-.1.1-.134.134-.078.078-.132.131-.061.061-.111.11-.062.06-.09.087-.051.05-.076.073-.04.039-.157.15a.515.515,0,0,1-.7,0l-.157-.15-.04-.039-.076-.073-.044-.043-.1-.1-.043-.043-.126-.123-.061-.06-.132-.131-.075-.075-.141-.141-.09-.091-.145-.147-.11-.112L21,49.768l-.113-.117-.168-.174-.106-.111-.188-.2-.109-.114-.2-.212L20,48.722,19.8,48.5l-.119-.129-.214-.233-.119-.131-.108-.118c-4.011.565-6.106,1.914-6.106,2.978,0,1.523,3.987,3.22,9.708,3.22s9.708-1.7,9.708-3.22c0-1.064-2.1-2.413-6.106-2.978l-.09.1Z" transform="translate(-0.219 -21.311)" fill="#262626"/>
    <path id="Path_775" data-name="Path 775" d="M32.38,16.934A6.763,6.763,0,1,0,25.617,23.7,6.77,6.77,0,0,0,32.38,16.934Zm-7.277,0V12.493a.514.514,0,0,1,1.029,0v4.229l2.037,2.037a.514.514,0,1,1-.727.727L25.253,17.3a.514.514,0,0,1-.151-.364Z" transform="translate(-2.998 -2.996)" fill="#262626"/>
    <path id="Path_776" data-name="Path 776" d="M22.384,28.613l.235.23c.554-.541,1.7-1.688,3.018-3.153,4.464-4.96,6.921-9.133,6.921-11.751a9.939,9.939,0,0,0-19.878,0c0,2.618,2.457,6.791,6.921,11.75C20.752,26.972,21.775,28.011,22.384,28.613ZM14.827,13.938a7.792,7.792,0,1,1,7.792,7.792,7.8,7.8,0,0,1-7.792-7.792Z" fill="#262626"/>
  </g>
</svg>
