<svg width="31" height="30" viewBox="0 0 31 30" fill="none" xmlns="http://www.w3.org/2000/svg">
<path d="M11.6297 0H3.5C2.70423 0 1.94131 0.316068 1.37857 0.878571C0.816068 1.4413 0.5 2.20423 0.5 3V11.1297C0.5 11.9255 0.816068 12.6884 1.37857 13.2511C1.9413 13.8136 2.70423 14.1297 3.5 14.1297H13.6297C13.8951 14.1297 14.1493 14.0243 14.3368 13.8368C14.5243 13.6493 14.6297 13.3951 14.6297 13.1297V3C14.6297 2.20423 14.3136 1.44131 13.7511 0.878571C13.1884 0.316068 12.4255 0 11.6297 0ZM12.6297 12.1297H3.5C3.23482 12.1297 2.98035 12.0243 2.79286 11.8368C2.60536 11.6494 2.5 11.3951 2.5 11.1297V3C2.5 2.73482 2.60536 2.48035 2.79286 2.29286C2.98035 2.10536 3.23482 2 3.5 2H11.6297C11.8951 2 12.1494 2.10536 12.3368 2.29286C12.5243 2.48035 12.6297 2.73482 12.6297 3V12.1297Z" fill="white"/>
<path d="M27.6304 0H19.2304C18.471 0.00267857 17.7435 0.306251 17.2076 0.844171C16.6715 1.38212 16.3706 2.11046 16.3706 2.87005V13.13C16.3706 13.3954 16.476 13.6497 16.6635 13.8372C16.851 14.0247 17.1052 14.13 17.3706 14.13H27.6306C28.3902 14.13 29.1185 13.8292 29.6565 13.293C30.1944 12.7571 30.498 12.0296 30.5007 11.2703V2.87028C30.498 2.10977 30.1948 1.38143 29.6571 0.843714C29.1194 0.305988 28.3911 0.00285716 27.6305 0.000171443L27.6304 0ZM28.5005 11.2703C28.5005 11.5 28.4085 11.7203 28.2451 11.8819C28.0815 12.0435 27.8603 12.1328 27.6304 12.1301H18.3704V2.8701C18.3704 2.64108 18.4606 2.42122 18.6215 2.25827C18.7827 2.09555 19.0012 2.00269 19.2302 2.00002H27.6302C27.861 2.00002 28.0822 2.09176 28.2454 2.25492C28.4086 2.4181 28.5003 2.6393 28.5003 2.87012L28.5005 11.2703Z" fill="white"/>
<path d="M13.6297 15.8711H3.5C2.70423 15.8711 1.94131 16.1872 1.37857 16.7497C0.816068 17.3124 0.5 18.0753 0.5 18.8711V27.0008C0.5 27.7966 0.816068 28.5595 1.37857 29.1222C1.9413 29.6847 2.70423 30.0008 3.5 30.0008H11.6297C12.4255 30.0008 13.1884 29.6847 13.7511 29.1222C14.3136 28.5595 14.6297 27.7966 14.6297 27.0008V16.8711C14.6297 16.6057 14.5243 16.3514 14.3368 16.164C14.1493 15.9765 13.8951 15.8711 13.6297 15.8711ZM12.6297 27.0008C12.6297 27.266 12.5243 27.5204 12.3368 27.7079C12.1494 27.8954 11.8951 28.0008 11.6297 28.0008H3.5C3.23482 28.0008 2.98035 27.8954 2.79286 27.7079C2.60536 27.5204 2.5 27.266 2.5 27.0008V18.8711C2.5 18.6057 2.60536 18.3514 2.79286 18.1639C2.98035 17.9765 3.23482 17.8711 3.5 17.8711H12.6297V27.0008Z" fill="white"/>
<path d="M27.6306 15.8711H17.3706C17.1052 15.8711 16.851 15.9765 16.6635 16.164C16.476 16.3514 16.3706 16.6057 16.3706 16.8711V27.1311C16.3706 27.8907 16.6715 28.619 17.2076 29.157C17.7436 29.6949 18.471 29.9985 19.2304 30.0011H27.6304C28.3909 29.9985 29.1192 29.6953 29.6569 29.1576C30.1947 28.6199 30.4978 27.8915 30.5005 27.131V18.731C30.4978 17.9717 30.1942 17.2442 29.6563 16.7083C29.1184 16.1721 28.39 15.8713 27.6304 15.8713L27.6306 15.8711ZM28.5007 27.1311C28.5007 27.3619 28.409 27.5831 28.2458 27.7463C28.0826 27.9095 27.8614 28.0012 27.6306 28.0012H19.2306C19.0016 27.9985 18.7831 27.9057 18.6219 27.7429C18.461 27.58 18.3708 27.3601 18.3708 27.1311V17.8711H27.6308H27.6306C27.8605 17.8684 28.0817 17.9577 28.2453 18.1193C28.4087 18.2809 28.5007 18.5013 28.5007 18.7309L28.5007 27.1311Z" fill="white"/>
</svg>
