<svg xmlns="http://www.w3.org/2000/svg" width="28.043" height="25.033" viewBox="0 0 28.043 25.033">
  <path id="Path_788" data-name="Path 788" d="M4.624,34.132h23.8a2.124,2.124,0,0,0,2.124-2.124V15.832a2.124,2.124,0,0,0-2.124-2.112H23.726v.973a3.219,3.219,0,0,1-3.216,3.2H12.533a3.219,3.219,0,0,1-3.216-3.216V13.72H4.624A2.124,2.124,0,0,0,2.5,15.832V32.008a2.124,2.124,0,0,0,2.124,2.124Zm15.02-12.208h7.893a1.141,1.141,0,0,1,0,2.282H19.645a1.141,1.141,0,0,1,0-2.282Zm0,4.221H25.8a1.141,1.141,0,0,1,0,2.282H19.645a1.141,1.141,0,0,1,0-2.282ZM4.595,30.273a1.146,1.146,0,0,1,.44-.9,25.858,25.858,0,0,1,3.638-2.246.043.043,0,0,0,.024-.039V26.051a2.573,2.573,0,0,1-.291-.807c-.156-.05-.3-.311-.43-.793s-.121-.714,0-.875a.275.275,0,0,1,.194-.1,2.273,2.273,0,0,1-.066-.264,2.459,2.459,0,0,1,0-1.071,2.368,2.368,0,0,1,.614-1.107,2.951,2.951,0,0,1,.565-.482,2.192,2.192,0,0,1,.551-.289,1.8,1.8,0,0,1,.506-.1,2.03,2.03,0,0,1,1.262.275,1.641,1.641,0,0,1,.607.571.765.765,0,0,1,.458.3,2.534,2.534,0,0,1,.222,1.914,2.225,2.225,0,0,1-.066.268.275.275,0,0,1,.194.1c.118.146.118.432,0,.875s-.274.743-.43.793a2.518,2.518,0,0,1-.291.8V27.1a.043.043,0,0,0,.024.039,25.864,25.864,0,0,1,3.639,2.247,1.144,1.144,0,0,1,.413.886v.964a.686.686,0,0,1-.7.671H5.279a.686.686,0,0,1-.7-.671ZM20.522,11.559a.779.779,0,0,1,.773.764v2.358a.779.779,0,0,1-.779.779H12.533a.779.779,0,0,1-.785-.773s0,0,0-.006V12.323a.779.779,0,0,1,.779-.779h1.548a2.446,2.446,0,0,1,4.893,0Z" transform="translate(-2.5 -9.099)"/>
</svg>
