<svg xmlns="http://www.w3.org/2000/svg" width="162.934" height="162.934" viewBox="0 0 162.934 162.934">
  <g id="Group_355" data-name="Group 355" transform="translate(-140.622 -82.302)">
    <path id="Path_87" data-name="Path 87" d="M217.426,150.96a66.467,66.467,0,1,1-66.467-66.467,66.467,66.467,0,0,1,66.467,66.467" transform="translate(71.13 12.809)" fill="#7e7e7e"/>
    <path id="Path_102" data-name="Path 102" d="M206.6,145.546a61.053,61.053,0,1,1-61.053-61.053A61.053,61.053,0,0,1,206.6,145.546" transform="translate(76.544 18.224)" fill="#1c1c1c"/>
    <path id="Path_88" data-name="Path 88" d="M330.774,172.357l-16.339,2.417a2.46,2.46,0,0,1-1-.059l-8.246-2.231a1,1,0,0,0-1.213.67l-4.957,16.223a1,1,0,0,0,.953,1.287h35.937a1,1,0,0,0,.952-1.287l-4.988-16.326a1,1,0,0,0-1.1-.694" transform="translate(-96.015 -52.457)" fill="#fff"/>
    <path id="Path_89" data-name="Path 89" d="M220.711,302.667h67.872a.605.605,0,0,0,.265-1.152c-7.966-3.657-35.33-13.962-68.373-.032a.618.618,0,0,0,.236,1.183" transform="translate(-32.563 -150.66)" fill="#fff"/>
    <path id="Path_90" data-name="Path 90" d="M420.382,375.926a10.977,10.977,0,1,1,10.977-10.977,10.989,10.989,0,0,1-10.977,10.977m0-18.717a7.74,7.74,0,1,0,7.74,7.74,7.749,7.749,0,0,0-7.74-7.74" transform="translate(-184.86 -198.583)" fill="#fff"/>
    <path id="Path_91" data-name="Path 91" d="M279.707,375.926a10.977,10.977,0,1,1,10.977-10.977,10.989,10.989,0,0,1-10.977,10.977m0-18.717a7.74,7.74,0,1,0,7.74,7.74,7.749,7.749,0,0,0-7.74-7.74" transform="translate(-71.682 -198.583)" fill="#fff"/>
    <path id="Path_92" data-name="Path 92" d="M369.258,388.641l-1.182-3.014a14.179,14.179,0,0,1,10.66,0l-1.182,3.012a10.893,10.893,0,0,0-8.3,0" transform="translate(-151.609 -223.213)" fill="#fff"/>
    <path id="Path_93" data-name="Path 93" d="M193.534,523.05h1.44l3.387,8.273h.117l3.387-8.273h1.44v9.966h-1.129v-7.572h-.1l-3.115,7.572h-1.09l-3.115-7.572h-.1v7.572h-1.129Z" transform="translate(-11.184 -334.611)" fill="#fff"/>
    <path id="Path_94" data-name="Path 94" d="M253.415,546.075a2.673,2.673,0,0,1-.521-.046,1.449,1.449,0,0,1-.316-.09l.292-1.012a2.212,2.212,0,0,0,.74.078.9.9,0,0,0,.572-.285,2.341,2.341,0,0,0,.46-.825l.214-.584-2.764-7.514h1.246l2.063,5.957h.078l2.063-5.957h1.246l-3.173,8.565a3.286,3.286,0,0,1-.53.961,2.006,2.006,0,0,1-.732.567,2.282,2.282,0,0,1-.937.185" transform="translate(-58.295 -344.867)" fill="#fff"/>
    <path id="Path_95" data-name="Path 95" d="M311.514,523.05l2.959,8.39h.117l2.959-8.39h1.265l-3.659,9.966h-1.246l-3.659-9.966Z" transform="translate(-105.085 -334.611)" fill="#fff"/>
    <path id="Path_96" data-name="Path 96" d="M360.86,523.014a.807.807,0,0,1-.577-.229.748.748,0,0,1,0-1.1.841.841,0,0,1,1.153,0,.748.748,0,0,1,0,1.1.807.807,0,0,1-.577.229m-.584,1.246h1.149v7.475h-1.149Z" transform="translate(-145.146 -333.33)" fill="#fff"/>
    <path id="Path_97" data-name="Path 97" d="M377.868,542.791v-7.475h1.109v1.129h.078a1.8,1.8,0,0,1,.74-.9A2.178,2.178,0,0,1,381,535.2q.127,0,.316,0t.287.015v1.168q-.059-.015-.265-.046a2.876,2.876,0,0,0-.435-.032,2.038,2.038,0,0,0-.971.226,1.727,1.727,0,0,0-.672.623,1.677,1.677,0,0,0-.246.9v4.73Z" transform="translate(-159.487 -344.386)" fill="#fff"/>
    <path id="Path_98" data-name="Path 98" d="M407.037,529.4h-3.874v-.973h3.874Zm-2.745-2.764h1.149v7.124a1.455,1.455,0,0,0,.143.728.7.7,0,0,0,.37.321,1.424,1.424,0,0,0,.479.08,1.827,1.827,0,0,0,.311-.022l.195-.036.234,1.032a2.385,2.385,0,0,1-.857.136,2.3,2.3,0,0,1-.951-.209,1.874,1.874,0,0,1-.769-.638,1.821,1.821,0,0,1-.3-1.08Z" transform="translate(-179.838 -337.496)" fill="#fff"/>
    <path id="Path_99" data-name="Path 99" d="M436.555,540.216V535.8H437.7v7.475h-1.149v-1.265h-.078a2.436,2.436,0,0,1-.818.966,2.35,2.35,0,0,1-1.4.4,2.48,2.48,0,0,1-1.246-.309,2.127,2.127,0,0,1-.857-.934,3.534,3.534,0,0,1-.311-1.579V535.8h1.149v4.672a1.822,1.822,0,0,0,.46,1.3,1.546,1.546,0,0,0,1.175.487,1.971,1.971,0,0,0,.873-.219,1.921,1.921,0,0,0,.749-.671,2.027,2.027,0,0,0,.3-1.153" transform="translate(-202.913 -344.867)" fill="#fff"/>
    <path id="Path_100" data-name="Path 100" d="M473.333,543.046a3.015,3.015,0,0,1-1.29-.27,2.12,2.12,0,0,1-1.26-2.027,1.93,1.93,0,0,1,.253-1.044,1.793,1.793,0,0,1,.676-.63,3.614,3.614,0,0,1,.937-.343q.513-.114,1.034-.183.681-.087,1.107-.134a1.693,1.693,0,0,0,.623-.158.41.41,0,0,0,.2-.389v-.039a1.53,1.53,0,0,0-.392-1.119,1.593,1.593,0,0,0-1.185-.4,2.065,2.065,0,0,0-1.289.36,2.131,2.131,0,0,0-.657.769l-1.09-.389a2.629,2.629,0,0,1,.781-1.063,2.947,2.947,0,0,1,1.071-.535,4.482,4.482,0,0,1,1.146-.153,4.722,4.722,0,0,1,.83.085,2.716,2.716,0,0,1,.91.348,2.04,2.04,0,0,1,.732.793,2.95,2.95,0,0,1,.292,1.421v4.925h-1.148v-1.012h-.058a2.018,2.018,0,0,1-.389.521,2.246,2.246,0,0,1-.725.472,2.8,2.8,0,0,1-1.1.195m.175-1.032a2.292,2.292,0,0,0,1.151-.268,1.843,1.843,0,0,0,.711-.691,1.773,1.773,0,0,0,.241-.891v-1.051a.674.674,0,0,1-.319.158,4.831,4.831,0,0,1-.565.122q-.319.051-.618.088l-.484.061a4.464,4.464,0,0,0-.835.187,1.454,1.454,0,0,0-.623.384.982.982,0,0,0-.236.694,1.022,1.022,0,0,0,.445.9,1.964,1.964,0,0,0,1.131.3" transform="translate(-234.241 -344.466)" fill="#fff"/>
    <rect id="Rectangle_38" data-name="Rectangle 38" width="1.149" height="9.966" transform="translate(244.62 188.439)" fill="#fff"/>
    <path id="Path_101" data-name="Path 101" d="M549.257,533.016V523.05h3.368a3.883,3.883,0,0,1,1.92.421,2.667,2.667,0,0,1,1.107,1.136,3.5,3.5,0,0,1,.36,1.6,3.549,3.549,0,0,1-.358,1.6,2.678,2.678,0,0,1-1.1,1.146,3.81,3.81,0,0,1-1.908.426H550.23v-1.07h2.375a2.6,2.6,0,0,0,1.289-.277,1.664,1.664,0,0,0,.708-.752,2.7,2.7,0,0,0,0-2.144,1.624,1.624,0,0,0-.713-.742,2.707,2.707,0,0,0-1.3-.27h-2.122v8.9Z" transform="translate(-297.376 -334.611)" fill="#fff"/>
    <rect id="Rectangle_39" data-name="Rectangle 39" width="1.149" height="9.966" transform="translate(260.426 188.439)" fill="#fff"/>
  </g>
</svg>
