<svg xmlns="http://www.w3.org/2000/svg" width="26.298" height="26.299" viewBox="0 0 26.298 26.299">
  <g id="Group_755" data-name="Group 755" transform="translate(-4232 -2806.923)">
    <g id="Group_754" data-name="Group 754" transform="translate(4232 2806.923)">
      <path id="Path_1419" data-name="Path 1419" d="M35.811,24.71a15.7,15.7,0,0,1-3.181-1.2q-.47-.235-.864-.451c-.52-.288-.933-.545-1.2-.72a.188.188,0,0,0-.05-.025,1.252,1.252,0,0,0-1.3.025,18.6,18.6,0,0,1-5.247,2.367A1.262,1.262,0,0,0,23,25.931V27a9.384,9.384,0,0,0,4.183,7.814l.582.388,1.428.952a1.212,1.212,0,0,0,.369.163h.006a.922.922,0,0,0,.319.05,1.277,1.277,0,0,0,.7-.213l2.01-1.34A9.384,9.384,0,0,0,36.775,27V25.931a1.262,1.262,0,0,0-.964-1.221Zm-3.6,3.425-2.5,2.5a.635.635,0,0,1-.889,0l-1.252-1.252a.629.629,0,1,1,.889-.889l.808.814,2.06-2.066a.629.629,0,0,1,.889.889Z" transform="translate(-10.477 -10.158)" fill="#0252c9"/>
      <path id="Path_1420" data-name="Path 1420" d="M23.4,9.412,18.047,3.939a3.127,3.127,0,0,0-.645-.5V8.009A1.884,1.884,0,0,0,19.28,9.888h4.5a3.438,3.438,0,0,0-.382-.476Zm.852,1.728H19.28a3.131,3.131,0,0,1-3.131-3.131V3.025A2.049,2.049,0,0,0,15.811,3H6.131A3.131,3.131,0,0,0,3,6.131V26.168A3.131,3.131,0,0,0,6.131,29.3H19.913l-.9-.6a10.624,10.624,0,0,1-4.74-8.854V18.773a2.5,2.5,0,0,1,1-2H7.383a.626.626,0,1,1,0-1.252H18.491a19.8,19.8,0,0,0,2.561-1.39A2.53,2.53,0,0,1,23.532,14l.044.019.188.113c.131.088.307.194.526.326V11.6a2.832,2.832,0,0,0-.038-.463ZM14.271,23.663a.626.626,0,0,1-.626.626H7.383a.626.626,0,1,1,0-1.252h6.262A.626.626,0,0,1,14.271,23.663ZM7.383,19.28h5.009a.626.626,0,1,1,0,1.252H7.383a.626.626,0,1,1,0-1.252Zm0-11.271h5.009a.626.626,0,1,1,0,1.252H7.383a.626.626,0,1,1,0-1.252Zm8.766,5.009H7.383a.626.626,0,1,1,0-1.252h8.766a.626.626,0,1,1,0,1.252Z" transform="translate(-3 -3)" fill="#0252c9"/>
    </g>
  </g>
</svg>
