<svg xmlns="http://www.w3.org/2000/svg" width="26.929" height="25.802" viewBox="0 0 26.929 25.802">
  <path id="Path_1568" data-name="Path 1568" d="M14.027,15.332c-.246.024-.5.037-.751.037h0a8.033,8.033,0,0,1-7.054-4.2,7.357,7.357,0,1,0,7.8,4.161ZM3.748,17.939a.341.341,0,0,1-.34-.342,1.75,1.75,0,0,1,3.5,0,.341.341,0,1,1-.682,0,1.068,1.068,0,0,0-2.133,0,.341.341,0,0,1-.342.342Zm6.359,3.21H4.632a.341.341,0,1,1,0-.682h5.475a.341.341,0,1,1,0,.682m.884-3.21a.342.342,0,0,1-.342-.342,1.068,1.068,0,0,0-2.132,0,.341.341,0,1,1-.682,0,1.75,1.75,0,0,1,3.5,0,.34.34,0,0,1-.34.342Zm2.286-3.251h0a7.354,7.354,0,1,0-5.19-2.154,7.348,7.348,0,0,0,5.19,2.154ZM15.491,4.042h0a1.745,1.745,0,0,1,1.736,1.746.341.341,0,1,1-.682,0,1.068,1.068,0,0,0-2.132,0,.341.341,0,1,1-.682,0,1.75,1.75,0,0,1,1.76-1.746Zm-4.435,0h0A1.75,1.75,0,0,1,12.8,5.788a.342.342,0,0,1-.683,0,1.067,1.067,0,0,0-2.131,0,.342.342,0,0,1-.683,0,1.751,1.751,0,0,1,1.758-1.746ZM9.61,7h0a.341.341,0,0,1,.341.342,3.32,3.32,0,0,0,6.639,0,.341.341,0,1,1,.682,0,4,4,0,0,1-8,0A.343.343,0,0,1,9.616,7Zm10.742,4.11a8.043,8.043,0,0,1-5.618,4.124,7.969,7.969,0,0,1-.825,7.825,7.337,7.337,0,1,0,6.444-11.938ZM16.3,17.6h0a1.75,1.75,0,0,1,3.5,0,.341.341,0,1,1-.682,0,1.068,1.068,0,0,0-2.133,0,.341.341,0,1,1-.682,0Zm7.222,4.093h0a.338.338,0,0,1-.474-.1,3.307,3.307,0,0,0-5.575,0,.349.349,0,1,1-.586-.379,3.991,3.991,0,0,1,6.72,0,.341.341,0,0,1-.086.475Zm.362-3.752h0a.342.342,0,0,1-.342-.342,1.067,1.067,0,0,0-2.131,0,.342.342,0,0,1-.683,0,1.75,1.75,0,0,1,3.5,0,.341.341,0,0,1-.342.345Z" transform="translate(0)" fill="#0252c9"/>
</svg>
