<svg id="Group_392" data-name="Group 392" xmlns="http://www.w3.org/2000/svg" xmlns:xlink="http://www.w3.org/1999/xlink" width="35.922" height="35.669" viewBox="0 0 35.922 35.669">
  <defs>
    <clipPath id="clip-path">
      <rect id="Rectangle_1597" data-name="Rectangle 1597" width="35.922" height="35.669" fill="#fff"/>
    </clipPath>
  </defs>
  <g id="Group_391" data-name="Group 391" clip-path="url(#clip-path)">
    <path id="Path_695" data-name="Path 695" d="M0,1.2A1.792,1.792,0,0,1,1.438.01c8.231.045,16.48-.088,24.7.067.408.074,1.154.758,1.154,1.161V18.672a9.362,9.362,0,0,0-1.669-.682,6.048,6.048,0,1,0,.391,11.576,11.616,11.616,0,0,0,1.278-.581v2.841c0,.695-1.14,1.362-1.786,1.3H1.716A1.881,1.881,0,0,1,0,31.932Zm24.485.211H22.45V14.533h2.035ZM13.33,7.447A4.762,4.762,0,0,0,8.559,2.677V7.447ZM7.577,8.5V3.764c0-.16-.715-.042-.859-.017A4.8,4.8,0,1,0,12.348,8.5Zm13.54-4.069h-2.1v10.1h2l.105-.105ZM17.679,6.746h-2.1v7.787h2l.105-.105ZM2.926,18.546a.311.311,0,0,0-.033.566l13.772.055c.517.061.666-.569.14-.638Zm-.014,3.283c-.267.092-.185.631,0,.631H16.943c.222,0,.222-.631,0-.631Zm0,3.3c-.267.092-.185.631,0,.631H16.943c.222,0,.222-.631,0-.631ZM3,28.44a.312.312,0,0,0-.162.552l13.971.067c.525-.069.377-.7-.14-.638Z" transform="translate(0 0)" fill="#fff"/>
    <path id="Path_696" data-name="Path 696" d="M203.765,196.81a5.414,5.414,0,0,1,6.015,6.786,11.414,11.414,0,0,1-.66,1.563l1.361,1.381c.064,0,.237-.365.385-.249l5.262,5.266a1.557,1.557,0,0,1-2.209,2.139l-5.3-5.3.274-.29-1.327-1.4a7.851,7.851,0,0,1-2.16.79,5.411,5.411,0,1,1-1.645-10.7m.705,1.891c-4.966.121-4.025,7.987.914,6.814,3.953-.939,3.179-6.914-.914-6.814" transform="translate(-180.488 -178.329)" fill="#fff"/>
  </g>
</svg>
