<svg id="Group_394" data-name="Group 394" xmlns="http://www.w3.org/2000/svg" xmlns:xlink="http://www.w3.org/1999/xlink" width="33.784" height="33.787" viewBox="0 0 33.784 33.787">
  <defs>
    <clipPath id="clip-path">
      <rect id="Rectangle_1599" data-name="Rectangle 1599" width="33.784" height="33.787" fill="#fff"/>
    </clipPath>
  </defs>
  <g id="Group_393" data-name="Group 393" clip-path="url(#clip-path)">
    <path id="Path_698" data-name="Path 698" d="M7.67.378v7.93a1.2,1.2,0,0,0,.489.488h7.93A7.829,7.829,0,1,1,7.67.378" transform="translate(-0.406 -0.34)" fill="#fff"/>
    <path id="Path_699" data-name="Path 699" d="M5.535,199.127l-1.376-.541a3.609,3.609,0,1,1,3.8,0l-1.376.541h1.24a5.5,5.5,0,0,1,2.553,1.13,5.6,5.6,0,0,1,1.675,5.128,1.207,1.207,0,0,1-1.219.961c-3.128.233-6.541-.181-9.7,0a1.207,1.207,0,0,1-1.09-1.09,5.4,5.4,0,0,1,2.082-5.285,5.708,5.708,0,0,1,2.165-.841Z" transform="translate(0 -172.633)" fill="#fff"/>
    <path id="Path_700" data-name="Path 700" d="M221.114,199.127l-1.376-.541a3.609,3.609,0,1,1,3.8,0l-1.376.541h1.24a5.5,5.5,0,0,1,2.553,1.13,5.6,5.6,0,0,1,1.675,5.128,1.207,1.207,0,0,1-1.219.961c-3.128.233-6.541-.181-9.7,0a1.207,1.207,0,0,1-1.09-1.09,5.4,5.4,0,0,1,2.082-5.285,5.708,5.708,0,0,1,2.165-.841Z" transform="translate(-193.932 -172.633)" fill="#fff"/>
    <path id="Path_701" data-name="Path 701" d="M113.7,151.221l-1.376-.541a3.609,3.609,0,1,1,3.8,0l-1.376.541h1.24a5.283,5.283,0,0,1,3.117,1.693c.891,1.056,2.1,4.158-.107,4.323-3.105.231-6.492-.182-9.627,0-1.952-.173-1.024-2.9-.321-3.935a5.171,5.171,0,0,1,3.406-2.081Z" transform="translate(-97.339 -129.537)" fill="#fff"/>
    <path id="Path_702" data-name="Path 702" d="M232.847,13.265h-4.81V.976c0-.34.563-.836.9-.906a15.949,15.949,0,0,1,3.015,0c.332.07.9.565.9.906Z" transform="translate(-205.14 0.001)" fill="#fff"/>
    <path id="Path_703" data-name="Path 703" d="M292.73,45.588h-4.81V36.907c0-.34.563-.836.9-.906a15.95,15.95,0,0,1,3.015,0c.332.07.9.565.9.906Z" transform="translate(-259.01 -32.321)" fill="#fff"/>
    <path id="Path_704" data-name="Path 704" d="M91.533,7.593H84.317V.377a7.847,7.847,0,0,1,7.216,7.216" transform="translate(-75.851 -0.339)" fill="#fff"/>
    <path id="Path_705" data-name="Path 705" d="M172.964,67.135h-4.81V60.86c0-.34.563-.836.9-.906a15.949,15.949,0,0,1,3.015,0c.332.07.9.565.9.906Z" transform="translate(-151.269 -53.869)" fill="#fff"/>
  </g>
</svg>
