<svg xmlns="http://www.w3.org/2000/svg" width="29.833" height="30.465" viewBox="0 0 29.833 30.465">
  <g id="Group_467" data-name="Group 467" transform="translate(-43.73 -39.23)">
    <path id="Path_781" data-name="Path 781" d="M353.779,86.879a.729.729,0,0,0,.738,0l1.235-.713.748-.432.892-.515a.738.738,0,0,0,0-1.279l-2.876-1.661a.738.738,0,0,0-1.107.64V86.24A.731.731,0,0,0,353.779,86.879Zm.474-3.779,2.561,1.479-2.561,1.479Z" transform="translate(-287.919 -39.931)" fill="#262626"/>
    <path id="Path_782" data-name="Path 782" d="M59.2,63.152a8.854,8.854,0,0,0,7.775-13.1c.057,0,.115,0,.171,0a5.425,5.425,0,0,0,2.76-.756h0a11.872,11.872,0,0,1,.893,7.226c-.017.086-.034.171-.053.256a.422.422,0,0,0,.323.5.44.44,0,0,0,.09.01.422.422,0,0,0,.412-.332c.02-.092.038-.183.056-.275a12.713,12.713,0,0,0-1.022-7.879,5.354,5.354,0,0,0,.649-.638,13.553,13.553,0,0,1,.576,10.95c-.036.093-.072.187-.11.279a.423.423,0,0,0,.23.55.43.43,0,0,0,.16.032.422.422,0,0,0,.391-.262c.04-.1.079-.2.117-.3a14.4,14.4,0,0,0-.814-12.016,5.414,5.414,0,1,0-9.938-1.559,8.853,8.853,0,0,0-8.485,1.775,4.819,4.819,0,0,0-1.235-2.781A11.82,11.82,0,0,1,57.16,42.67a.421.421,0,1,0-.147-.83,12.664,12.664,0,0,0-5.5,2.421,4.791,4.791,0,0,0-.793-.5A13.475,13.475,0,0,1,59.2,40.777a.422.422,0,0,0,0-.843,14.32,14.32,0,0,0-9.383,3.487,4.8,4.8,0,0,0-1.25-.164,4.837,4.837,0,1,0,1.956,9.261,8.865,8.865,0,0,0,1.814,7.378,4.155,4.155,0,0,0-.911.337,4.208,4.208,0,0,0-1.417,1.174c-.037.048-.073.1-.107.145a11.766,11.766,0,0,1-2-3.881.422.422,0,0,0-.808.24,12.612,12.612,0,0,0,2.372,4.436,4.153,4.153,0,0,0-.231.725c-.022.1-.039.2-.054.293a13.559,13.559,0,0,1-3.405-7.511.422.422,0,0,0-.838.1,14.406,14.406,0,0,0,4.012,8.4.424.424,0,0,0,.213.117,4.209,4.209,0,1,0,8.267-1.5,8.8,8.8,0,0,0,1.774.181Zm-2.575,1.557a3.365,3.365,0,1,1-6.571-1.456c.014-.064.03-.126.048-.188a3.359,3.359,0,0,1,2.911-2.433,3.29,3.29,0,0,1,.617,0c.079.006.157.016.235.029s.135.023.2.038A3.393,3.393,0,0,1,55.5,61.4a3.319,3.319,0,0,1,.488.505q.1.128.186.262a3.3,3.3,0,0,1,.281.544A3.349,3.349,0,0,1,56.626,64.709ZM48.568,44.1a3.874,3.874,0,0,1,.489.03,3.928,3.928,0,0,1,.962.243,4.006,4.006,0,0,1,2.543,3.721q0,.183-.017.365a3.982,3.982,0,0,1-1,2.3,4.016,4.016,0,0,1-.431.415c-.088.072-.179.141-.273.205A3.994,3.994,0,1,1,48.568,44.1Zm14.008.545A4.571,4.571,0,1,1,71.3,46.556a4.462,4.462,0,0,1-.486.817,4.533,4.533,0,0,1-.61.669c-.048.044-.1.087-.149.129a4.5,4.5,0,0,1-.532.377,4.574,4.574,0,0,1-2.377.667,4.523,4.523,0,0,1-.737-.06,8.908,8.908,0,0,0-3.552-2.927A4.566,4.566,0,0,1,62.577,44.644Zm3.071,7.295a.316.316,0,1,1,.594-.218,7.509,7.509,0,0,1-.258,5.769.316.316,0,1,1-.573-.269,6.874,6.874,0,0,0,.237-5.282ZM59.2,49.572a2.889,2.889,0,1,1-2.889,2.889A2.889,2.889,0,0,1,59.2,49.572ZM56.658,61.39a4.217,4.217,0,0,0-2.407-1.518l-.124-.025a5.486,5.486,0,0,1,10.327.5c-.051.044-.1.087-.153.13a8.009,8.009,0,0,1-7.239,1.54A4.2,4.2,0,0,0,56.658,61.39Z" transform="translate(0 0)" fill="#262626"/>
    <path id="Path_783" data-name="Path 783" d="M87.857,143.769a.13.13,0,0,0,.1.209h1.555v0a1.747,1.747,0,1,0-1.374-.582Z" transform="translate(-40.878 -94.137)" fill="#262626"/>
    <path id="Path_784" data-name="Path 784" d="M252,342.72a4.574,4.574,0,0,0-4.568,4.51,11.784,11.784,0,0,1-2.776.85c-.33.058-.666.1-1,.134a.421.421,0,0,0,.037.841h.039c.356-.032.715-.08,1.069-.143a12.668,12.668,0,0,0,2.7-.793,4.5,4.5,0,0,0,.24.844,13.477,13.477,0,0,1-5.148,1.015c-.384,0-.772-.016-1.153-.048a.422.422,0,0,0-.071.84c.4.034.817.051,1.224.051a14.314,14.314,0,0,0,5.53-1.1,4.569,4.569,0,1,0,3.872-7Zm0,8.3a3.726,3.726,0,0,1-3.095-1.652,3.694,3.694,0,0,1-.6-1.613,3.726,3.726,0,1,1,3.7,3.265Z" transform="translate(-183.397 -282.164)" fill="#262626"/>
    <path id="Path_785" data-name="Path 785" d="M364.491,370.97h-2.514a1.349,1.349,0,0,0-1.346,1.347v2.514a1.322,1.322,0,0,0,.094.493,1.349,1.349,0,0,0,1.252.853h2.514a1.348,1.348,0,0,0,1.347-1.346v-2.514A1.349,1.349,0,0,0,364.491,370.97Zm.5,3.861a.5.5,0,0,1-.5.5h-2.514a.5.5,0,0,1-.5-.452.417.417,0,0,1,0-.051v-2.514a.5.5,0,0,1,.5-.5h2.514a.5.5,0,0,1,.5.5Z" transform="translate(-294.631 -308.428)" fill="#262626"/>
    <path id="Path_786" data-name="Path 786" d="M389.066,398.73h-.046a.631.631,0,0,0-.63.63v.046a.631.631,0,0,0,.63.63h.046a.63.63,0,0,0,.63-.63v-.046A.63.63,0,0,0,389.066,398.73Z" transform="translate(-320.441 -334.238)" fill="#262626"/>
    <path id="Path_787" data-name="Path 787" d="M159.081,372.6a.963.963,0,0,0-.571.187l-.129.094-.129-.094a.97.97,0,0,0-1.453.377.893.893,0,0,0-.061.175.959.959,0,0,0-.028.231.971.971,0,0,0,.315.716l.3.274.8.727a.388.388,0,0,0,.524,0l1.095-1a.971.971,0,0,0-.657-1.686Z" transform="translate(-105.041 -309.944)" fill="#262626"/>
  </g>
</svg>
