<svg id="Group_683" data-name="Group 683" xmlns="http://www.w3.org/2000/svg" xmlns:xlink="http://www.w3.org/1999/xlink" width="150.525" height="150.966" viewBox="0 0 150.525 150.966">
  <defs>
    <linearGradient id="linear-gradient" x1="0.039" y1="0.964" x2="0.97" y2="0.039" gradientUnits="objectBoundingBox">
      <stop offset="0"/>
      <stop offset="1" stop-color="#373737"/>
    </linearGradient>
    <linearGradient id="linear-gradient-2" x1="0.5" y1="-0.607" x2="0.5" y2="1" gradientUnits="objectBoundingBox">
      <stop offset="0" stop-color="#707070"/>
      <stop offset="1"/>
    </linearGradient>
  </defs>
  <rect id="Rectangle_1582" data-name="Rectangle 1582" width="150.525" height="150.966" rx="8" fill="url(#linear-gradient)"/>
  <path id="Path_694" data-name="Path 694" d="M32.2,18.818a25.088,25.088,0,0,1-14.922-4.577A30.138,30.138,0,0,1,7.223,1.369,47.758,47.758,0,0,1,3.6-17.891a47.333,47.333,0,0,1,3.623-19.26A30.379,30.379,0,0,1,17.235-49.927,24.875,24.875,0,0,1,32.109-54.5a25.4,25.4,0,0,1,15.113,4.577A29.851,29.851,0,0,1,57.233-37.1a47.968,47.968,0,0,1,3.576,19.212A47.968,47.968,0,0,1,57.233,1.322,30.19,30.19,0,0,1,47.221,14.194,25.061,25.061,0,0,1,32.2,18.818Zm.1-13.349A10.676,10.676,0,0,0,39.737,2.7,17.515,17.515,0,0,0,44.409-5.3a42.932,42.932,0,0,0,1.621-12.586,42.444,42.444,0,0,0-1.621-12.538,17.284,17.284,0,0,0-4.72-7.961A10.85,10.85,0,0,0,32.2-41.155a10.8,10.8,0,0,0-7.532,2.765A17.507,17.507,0,0,0,20-30.429a42.444,42.444,0,0,0-1.621,12.538A42.552,42.552,0,0,0,20-5.4a17.634,17.634,0,0,0,4.72,8.057A10.869,10.869,0,0,0,32.3,5.469ZM91.51,18.818a28.783,28.783,0,0,1-11.251-2.241A25.225,25.225,0,0,1,71.2,10.237,20.876,20.876,0,0,1,66.243.607L79.306-3.779a14.217,14.217,0,0,0,4.767,6.913A12.13,12.13,0,0,0,91.51,5.469a12.8,12.8,0,0,0,6.055-1.335A9.819,9.819,0,0,0,101.521.368a10.982,10.982,0,0,0,1.43-5.673,10.757,10.757,0,0,0-1.383-5.578,9.374,9.374,0,0,0-3.909-3.623,13.428,13.428,0,0,0-6.15-1.287,18.876,18.876,0,0,0-4.2.477A16.846,16.846,0,0,0,83.5-13.982l-3.432-7.151L98.28-40.965H70.534v-12.4H114.87v11.442L96.182-20.656l.477-6.007a22.513,22.513,0,0,1,11.108,2.622,18.627,18.627,0,0,1,7.342,7.294,21.838,21.838,0,0,1,2.622,10.87A23.859,23.859,0,0,1,114.3,6.8a24.224,24.224,0,0,1-9.344,8.82A27.827,27.827,0,0,1,91.51,18.818Z" transform="translate(32.033 126.014)" fill="url(#linear-gradient-2)"/>
</svg>
